<?xml version="1.0" encoding="utf-8"?>
<!-- Generator: Adobe Illustrator 20.0.0, SVG Export Plug-In . SVG Version: 6.00 Build 0)  -->
<svg version="1.1" id="Layer_1" xmlns="http://www.w3.org/2000/svg" xmlns:xlink="http://www.w3.org/1999/xlink" x="0px" y="0px"
	 viewBox="0 0 100 100" style="enable-background:new 0 0 100 100;" xml:space="preserve">
<style type="text/css">
	.st0{fill:#25747F;}
	.st1{fill:#00B3CC;}
	.st2{fill:#9BEBF9;}
	.st3{fill:none;stroke:#9BEBF9;stroke-miterlimit:10;}
</style>
<path class="st2" d="M65.4,0.3H6.1H1V6h5.1v93.7h20.6V81.7c0-5,4-9,9-9c5,0,9,4,9,9v18.1h20.6V6h5.1V0.3H65.4z M23,63.9h-8.9v-22H23
	V63.9z M23,32.7h-8.9v-22H23V32.7z M40.2,63.9h-8.9v-22h8.9V63.9z M40.2,32.7h-8.9v-22h8.9V32.7z M57.4,63.9h-8.9v-22h8.9V63.9z
	 M57.4,32.7h-8.9v-22h8.9V32.7z"/>
<path class="st1" d="M65.4,34.4v65.4H99V34.4H65.4z M80.4,88.1h-8.9v-11h8.9V88.1z M80.4,72.5h-8.9v-11h8.9V72.5z M80.4,57h-8.9V46
	h8.9V57z M92.9,88.1H84v-11h8.9V88.1z M92.9,72.5H84v-11h8.9V72.5z M92.9,57H84V46h8.9V57z"/>
<g>
	<rect x="71.5" y="46" class="st2" width="8.9" height="11"/>
	<rect x="84" y="46" class="st2" width="8.9" height="11"/>
	<rect x="71.5" y="61.5" class="st2" width="8.9" height="11"/>
	<rect x="84" y="61.5" class="st2" width="8.9" height="11"/>
	<rect x="71.5" y="77.1" class="st2" width="8.9" height="11"/>
	<rect x="84" y="77.1" class="st2" width="8.9" height="11"/>
</g>
<g>
	<rect x="14.1" y="41.9" class="st0" width="8.9" height="22"/>
	<rect x="31.3" y="41.9" class="st0" width="8.9" height="22"/>
	<rect x="48.5" y="41.9" class="st0" width="8.9" height="22"/>
	<rect x="14.1" y="10.7" class="st0" width="8.9" height="22"/>
	<rect x="31.3" y="10.7" class="st0" width="8.9" height="22"/>
	<rect x="48.5" y="10.7" class="st0" width="8.9" height="22"/>
</g>
</svg>
