<?xml version="1.0" encoding="utf-8"?>
<!-- Generator: Adobe Illustrator 20.0.0, SVG Export Plug-In . SVG Version: 6.00 Build 0)  -->
<svg version="1.1" id="Layer_1" xmlns="http://www.w3.org/2000/svg" xmlns:xlink="http://www.w3.org/1999/xlink" x="0px" y="0px"
	 viewBox="0 0 100 100" style="enable-background:new 0 0 100 100;" xml:space="preserve">
<style type="text/css">
	.st0{fill:#25747F;}
	.st1{fill:#00B3CC;}
	.st2{fill:#9BEBF9;}
	.st3{fill:none;stroke:#9BEBF9;stroke-miterlimit:10;}
</style>
<path class="st2" d="M84.1,0.5H15.9c-1,0-1.9,0.8-1.9,1.9v95.2c0,1,0.8,1.9,1.9,1.9h68.2c1,0,1.9-0.8,1.9-1.9V2.4
	C86,1.3,85.2,0.5,84.1,0.5z M32,87.4h-9v-9h9V87.4z M32,72.4h-9v-9h9V72.4z M32,57.4h-9v-9h9V57.4z M32,42.4h-9v-9h9V42.4z M47,87.4
	h-9v-9h9V87.4z M47,72.4h-9v-9h9V72.4z M47,57.4h-9v-9h9V57.4z M47,42.4h-9v-9h9V42.4z M62,87.4h-9v-9h9V87.4z M62,72.4h-9v-9h9
	V72.4z M62,57.4h-9v-9h9V57.4z M62,42.4h-9v-9h9V42.4z M77,87.4h-9v-24h9V87.4z M77,57.4h-9v-9h9V57.4z M77,42.4h-9v-9h9V42.4z
	 M77,27.5H23v-18h54V27.5z"/>
<rect x="23" y="9.5" class="st0" width="54" height="18"/>
<g>
	<rect x="23" y="33.4" class="st1" width="9" height="9"/>
	<rect x="38" y="33.4" class="st1" width="9" height="9"/>
	<rect x="53" y="33.4" class="st1" width="9" height="9"/>
	<rect x="68" y="33.4" class="st1" width="9" height="9"/>
	<rect x="23" y="48.4" class="st1" width="9" height="9"/>
	<rect x="38" y="48.4" class="st1" width="9" height="9"/>
	<rect x="53" y="48.4" class="st1" width="9" height="9"/>
	<rect x="68" y="48.4" class="st1" width="9" height="9"/>
	<rect x="23" y="63.4" class="st1" width="9" height="9"/>
	<rect x="38" y="63.4" class="st1" width="9" height="9"/>
	<rect x="53" y="63.4" class="st1" width="9" height="9"/>
	<rect x="23" y="78.4" class="st1" width="9" height="9"/>
	<rect x="38" y="78.4" class="st1" width="9" height="9"/>
	<rect x="53" y="78.4" class="st1" width="9" height="9"/>
	<rect x="68" y="63.4" class="st1" width="9" height="24"/>
</g>
</svg>
