<?xml version="1.0" encoding="utf-8"?>
<!-- Generator: Adobe Illustrator 20.0.0, SVG Export Plug-In . SVG Version: 6.00 Build 0)  -->
<svg version="1.1" id="Layer_1" xmlns="http://www.w3.org/2000/svg" xmlns:xlink="http://www.w3.org/1999/xlink" x="0px" y="0px"
	 viewBox="0 0 100 100" style="enable-background:new 0 0 100 100;" xml:space="preserve">
<style type="text/css">
	.st0{fill:#25747F;}
	.st1{fill:#00B3CC;}
	.st2{fill:#9BEBF9;}
	.st3{fill:none;stroke:#9BEBF9;stroke-miterlimit:10;}
</style>
<path class="st0" d="M59.6,69.6c-1.6,0-3,0.6-4,1.6l-16.9-9.8c0.1-0.4,0.1-0.8,0.1-1.2c0-0.4,0-0.8-0.1-1.2l16.9-9.8
	c1,1,2.5,1.6,4,1.6c3.2,0,5.8-2.6,5.8-5.8c0-3.2-2.6-5.8-5.8-5.8s-5.8,2.6-5.8,5.8c0,0.5,0.1,1,0.2,1.4l-16.8,9.7
	c-1.1-1.1-2.5-1.8-4.2-1.8c-3.2,0-5.8,2.6-5.8,5.8s2.6,5.8,5.8,5.8c1.6,0,3.1-0.7,4.2-1.8L53.9,74c-0.1,0.4-0.2,0.9-0.2,1.4
	c0,3.2,2.6,5.8,5.8,5.8s5.8-2.6,5.8-5.8C65.4,72.2,62.8,69.6,59.6,69.6z"/>
<path class="st2" d="M0.5,31.2v56.3c0,1.1,0.9,2.1,2.1,2.1h94.8c1.1,0,2.1-0.9,2.1-2.1V31.2H0.5z M38.7,60.2c0,0.4,0,0.8-0.1,1.2
	l16.9,9.8c1-1,2.5-1.6,4-1.6c3.2,0,5.8,2.6,5.8,5.8c0,3.2-2.6,5.8-5.8,5.8s-5.8-2.6-5.8-5.8c0-0.5,0.1-1,0.2-1.4l-16.8-9.7
	c-1.1,1.1-2.5,1.8-4.2,1.8c-3.2,0-5.8-2.6-5.8-5.8s2.6-5.8,5.8-5.8c1.6,0,3.1,0.7,4.2,1.8l16.8-9.7c-0.1-0.4-0.2-0.9-0.2-1.4
	c0-3.2,2.6-5.8,5.8-5.8s5.8,2.6,5.8,5.8c0,3.2-2.6,5.8-5.8,5.8c-1.6,0-3-0.6-4-1.6L38.6,59C38.7,59.4,38.7,59.8,38.7,60.2z"/>
<path class="st0" d="M97.4,10.4H2.6c-1.1,0-2.1,0.9-2.1,2.1v18.7h99V12.5C99.5,11.4,98.6,10.4,97.4,10.4z M9.3,23.6
	c-1.5,0-2.7-1.2-2.7-2.7c0-1.5,1.2-2.7,2.7-2.7s2.7,1.2,2.7,2.7C12,22.3,10.8,23.6,9.3,23.6z M19.6,23.6c-1.5,0-2.7-1.2-2.7-2.7
	c0-1.5,1.2-2.7,2.7-2.7c1.5,0,2.7,1.2,2.7,2.7C22.3,22.3,21.1,23.6,19.6,23.6z M29.9,23.6c-1.5,0-2.7-1.2-2.7-2.7
	c0-1.5,1.2-2.7,2.7-2.7c1.5,0,2.7,1.2,2.7,2.7C32.7,22.3,31.4,23.6,29.9,23.6z"/>
<g>
	<circle class="st2" cx="9.3" cy="20.8" r="2.7"/>
	<circle class="st2" cx="19.6" cy="20.8" r="2.7"/>
	<circle class="st2" cx="29.9" cy="20.8" r="2.7"/>
</g>
</svg>
