<?xml version="1.0" encoding="utf-8"?>
<!-- Generator: Adobe Illustrator 20.0.0, SVG Export Plug-In . SVG Version: 6.00 Build 0)  -->
<svg version="1.1" id="Layer_1" xmlns="http://www.w3.org/2000/svg" xmlns:xlink="http://www.w3.org/1999/xlink" x="0px" y="0px"
	 viewBox="0 0 100 100" style="enable-background:new 0 0 100 100;" xml:space="preserve">
<style type="text/css">
	.st0{fill:#25747F;}
	.st1{fill:#00B3CC;}
	.st2{fill:#9BEBF9;}
	.st3{fill:none;stroke:#9BEBF9;stroke-miterlimit:10;}
</style>
<g>
	<g>
		<path class="st2" d="M39.4,98.7c1.1,1.1,2.9,1.1,4,0l55.3-55.3c1.1-1.1,1.1-2.9,0-4l-7.6-7.6L31.8,91.1L39.4,98.7z"/>
		<path class="st2" d="M56.6,1.3L1.3,56.6c-1.1,1.1-1.1,2.9,0,4L23.7,83L83,23.7L60.6,1.3C59.5,0.2,57.7,0.2,56.6,1.3z M25.9,59.9
			c0.8,0.8,0.8,2.2,0,3l-4.2,4.2c-0.8,0.8-2.2,0.8-3,0l-4.2-4.2c-0.8-0.8-0.8-2.2,0-3l4.2-4.2c0.8-0.8,2.2-0.8,3,0L25.9,59.9z
			 M40.8,43.8l-7.4,7.4c-0.8,0.8-2.1,0.8-2.9,0c-0.8-0.8-0.8-2.1,0-2.9l7.4-7.4c0.8-0.8,2.1-0.8,2.9,0
			C41.6,41.6,41.6,42.9,40.8,43.8z M64.9,19.6L48.2,36.3c-0.8,0.8-2.1,0.8-2.9,0c-0.8-0.8-0.8-2.1,0-2.9L62,16.7
			c0.8-0.8,2.1-0.8,2.9,0C65.7,17.5,65.7,18.8,64.9,19.6z"/>
	</g>
	
		<rect x="15.5" y="51.7" transform="matrix(0.7071 -0.7071 0.7071 0.7071 -23.7811 57.4126)" class="st0" width="83.8" height="11.5"/>
	<path class="st1" d="M18.7,55.7l-4.2,4.2c-0.8,0.8-0.8,2.2,0,3l4.2,4.2c0.8,0.8,2.2,0.8,3,0l4.2-4.2c0.8-0.8,0.8-2.2,0-3l-4.2-4.2
		C20.9,54.8,19.5,54.8,18.7,55.7z"/>
	<path class="st1" d="M62,16.7L45.3,33.4c-0.8,0.8-0.8,2.1,0,2.9c0.8,0.8,2.1,0.8,2.9,0l16.7-16.7c0.8-0.8,0.8-2.1,0-2.9
		C64.1,15.9,62.8,15.9,62,16.7z"/>
	<path class="st1" d="M37.9,40.8l-7.4,7.4c-0.8,0.8-0.8,2.1,0,2.9c0.8,0.8,2.1,0.8,2.9,0l7.4-7.4c0.8-0.8,0.8-2.1,0-2.9
		C40,40,38.7,40,37.9,40.8z"/>
</g>
</svg>
