<?xml version="1.0" encoding="utf-8"?>
<!-- Generator: Adobe Illustrator 19.2.1, SVG Export Plug-In . SVG Version: 6.00 Build 0)  -->
<svg version="1.1" id="Layer_1" xmlns="http://www.w3.org/2000/svg" xmlns:xlink="http://www.w3.org/1999/xlink" x="0px" y="0px"
	 viewBox="0 0 64 64" style="enable-background:new 0 0 64 64;" xml:space="preserve">
<path d="M51.3,52.7V10h1.5v42.8H51.3z M60.5,10H62v42.8h-1.5V10z M45.9,52.8H2.5v-4.3c0-3.6,2.6-6.4,7.7-8.4c4.9-1.9,9.6-2.9,14-2.9
	c0,0,0,0,0,0c4.4,0,9.1,1,14,2.9c5.1,2,7.7,4.8,7.7,8.4V52.8z M4.1,51.1h40.2v-2.7c0-2.8-2.2-5.1-6.7-6.9c-4.7-1.8-9.2-2.8-13.4-2.8
	c0,0,0,0,0,0c-4.2,0-8.7,0.9-13.4,2.8c-4.5,1.8-6.7,4-6.7,6.9V51.1z M23.7,33.5c-3.1,0-5.9-1.2-8.2-3.6c-2.4-2.4-3.6-5.1-3.6-8.2
	c0-3.1,1.2-5.9,3.6-8.2c2.4-2.4,5.1-3.6,8.2-3.6c3.1,0,5.9,1.2,8.2,3.6c2.4,2.4,3.5,5.1,3.6,8.2c0,3.1-1.2,5.9-3.6,8.2
	C29.6,32.3,26.8,33.5,23.7,33.5z M23.7,11.6c-2.7,0-5,1-7.1,3.1c-2.1,2.1-3.1,4.4-3.1,7.1c0,2.7,1,5,3.1,7.1
	c2.1,2.1,4.4,3.1,7.1,3.1c2.7,0,5-1,7.1-3.1c2.1-2.1,3.1-4.4,3.1-7.1c0-2.7-1-5-3.1-7.1C28.7,12.6,26.4,11.6,23.7,11.6z"/>
</svg>
