<?xml version="1.0" encoding="utf-8"?>
<!-- Generator: Adobe Illustrator 20.0.0, SVG Export Plug-In . SVG Version: 6.00 Build 0)  -->
<svg version="1.1" id="Layer_1" xmlns="http://www.w3.org/2000/svg" xmlns:xlink="http://www.w3.org/1999/xlink" x="0px" y="0px"
	 viewBox="0 0 100 100" style="enable-background:new 0 0 100 100;" xml:space="preserve">
<style type="text/css">
	.st0{fill:#25747F;}
	.st1{fill:#00B3CC;}
	.st2{fill:#9BEBF9;}
	.st3{fill:none;stroke:#9BEBF9;stroke-miterlimit:10;}
</style>
<g>
	<path class="st0" d="M23.7,83.3c-5.6,0-10.1,4.5-10.1,10.1v6.1h20.1v-6.1C33.8,87.9,29.3,83.3,23.7,83.3z"/>
	<circle class="st0" cx="23.7" cy="73.5" r="5.8"/>
</g>
<g>
	<path class="st0" d="M76.3,83.3c-5.6,0-10.1,4.5-10.1,10.1v6.1h20.1v-6.1C86.3,87.9,81.8,83.3,76.3,83.3z"/>
	<circle class="st0" cx="76.3" cy="73.5" r="5.8"/>
</g>
<g>
	<path class="st0" d="M50,16.2c-5.6,0-10.1,4.5-10.1,10.1v6.1h20.1v-6.1C60.1,20.7,55.6,16.2,50,16.2z"/>
	<circle class="st0" cx="50" cy="6.3" r="5.8"/>
</g>
<path class="st2" d="M66.2,46.7H52v-8.8H48v8.8H33.8c-6.6,0-12,5.4-12,12v3.5h3.9v-3.5c0-4.5,3.6-8.1,8.1-8.1h32.4
	c4.5,0,8.1,3.6,8.1,8.1v3.5h3.9v-3.5C78.2,52.1,72.8,46.7,66.2,46.7z"/>
</svg>
