<?xml version="1.0" encoding="UTF-8"?>
<svg width="180px" height="40px" viewBox="0 0 180 40" version="1.1" xmlns="http://www.w3.org/2000/svg" xmlns:xlink="http://www.w3.org/1999/xlink">
    <!-- Generator: Sketch 43.2 (39069) - http://www.bohemiancoding.com/sketch -->
    <title>Logo_RealPage Copy</title>
    <desc>Created with Sketch.</desc>
    <defs></defs>
    <g id="Page-1" stroke="none" stroke-width="1" fill="none" fill-rule="evenodd">
        <g id="RAUL_MainHeader_Desktop" transform="translate(-71.000000, -8.000000)">
            <g id="Logo_RealPage-Copy" transform="translate(71.000000, 8.000000)">
                <g id="3-Dots">
                    <g id="3-dots" transform="translate(0.000000, 9.000000)" fill="#F06000">
                        <path d="M14.7085002,3.37928539 C14.7085002,5.2310687 13.2440285,6.733681 11.4376767,6.733681 C9.63004924,6.733681 8.16557758,5.2310687 8.16557758,3.37928539 C8.16557758,1.52750209 9.63004924,0.0261975451 11.4376767,0.0261975451 C13.2440285,0.0261975451 14.7085002,1.52750209 14.7085002,3.37928539" id="Fill-2"></path>
                        <path d="M6.54305015,17.7071972 C6.54305015,19.5602882 5.07857849,21.0615928 3.27222669,21.0615928 C1.46459922,21.0615928 0.000127567217,19.5602882 0.000127567217,17.7071972 C0.000127567217,15.8554139 1.46459922,14.3541093 3.27222669,14.3541093 C5.07857849,14.3541093 6.54305015,15.8554139 6.54305015,17.7071972" id="Fill-4"></path>
                        <path d="M23.4500437,17.7071972 C23.4500437,19.5602882 21.9855721,21.0615928 20.1792203,21.0615928 C18.3715928,21.0615928 16.9071212,19.5602882 16.9071212,17.7071972 C16.9071212,15.8554139 18.3715928,14.3541093 20.1792203,14.3541093 C21.9855721,14.3541093 23.4500437,15.8554139 23.4500437,17.7071972" id="Fill-6"></path>
                    </g>
                    <polygon id="Fill-1" fill="#FFFFFF" points="31 0 31 39.8686235 31.2946803 39.8686235 31.5881429 39.8686235 31.5881429 0"></polygon>
                </g>
                <g id="REALPAGE" transform="translate(37.000000, 14.000000)" fill="#FFFFFF">
                    <path d="M6.24148431,11.7158435 L3.86942989,7.46408907 L2.8794503,7.46408907 L2.8794503,11.7158435 L0.899491116,11.7158435 L0.899491116,1.08645749 L4.35650472,1.08645749 C5.86400132,1.08645749 6.55564758,1.27994602 7.16814418,1.87539136 C7.73436867,2.40717274 8.01687207,3.17987854 8.01687207,4.17852901 C8.01687207,4.99991903 7.82813057,5.66027665 7.45064758,6.17582996 C7.05855234,6.69138327 6.69689928,6.91607962 5.83234146,7.15825236 L8.41018499,11.7158435 L6.24148431,11.7158435 Z M4.16776323,2.80912955 L2.8794503,2.80912955 L2.8794503,5.741417 L4.16776323,5.741417 C5.42441629,5.741417 5.97481084,5.28952767 5.97481084,4.22721323 C5.97481084,3.21233468 5.45607615,2.80912955 4.16776323,2.80912955 L4.16776323,2.80912955 Z" id="Fill-11"></path>
                    <polygon id="Fill-13" points="19.5040449 11.7158435 19.5040449 1.08645749 25.8201877 1.08645749 25.8201877 2.80912955 21.484004 2.80912955 21.484004 5.43433198 25.0347796 5.43433198 25.0347796 7.15825236 21.484004 7.15825236 21.484004 9.99317139 26.0247591 9.99317139 26.0247591 11.7158435"></polygon>
                    <path d="M42.9159054,11.7158435 L42.0988374,9.09064103 L38.6284292,9.09064103 L37.7784836,11.7158435 L35.7047625,11.7158435 L39.4588918,1.08645749 L41.2342796,1.08645749 L44.9896265,11.7158435 L42.9159054,11.7158435 Z M40.3551095,3.51817139 L39.1605585,7.36796896 L41.5654904,7.36796896 L40.3551095,3.51817139 Z" id="Fill-15"></path>
                    <polygon id="Fill-17" points="55.8645462 11.7158435 55.8645462 1.08645749 57.8445054 1.08645749 57.8445054 9.99317139 62.0857095 9.99317139 62.0857095 11.7158435"></polygon>
                    <path d="M78.7580374,7.20593792 C78.0213367,7.85006748 77.1092891,8.12344804 75.6943367,8.12344804 C75.3010238,8.12344804 75.0818401,8.10721997 74.736017,8.07601215 L74.736017,11.7160931 L72.7560578,11.7160931 L72.7560578,1.08545884 L76.3068333,1.08545884 C77.6584659,1.08545884 78.4122142,1.32763158 79.0563707,1.95553306 C79.6384251,2.55097841 79.9367585,3.35614035 79.9367585,4.33856275 C79.9367585,5.51447368 79.5288333,6.52935223 78.7580374,7.20593792 M76.1180918,2.80937922 L74.736017,2.80937922 L74.736017,6.35209177 L74.9880782,6.36831984 L75.2389217,6.36831984 C75.4593231,6.36831984 75.6005748,6.38454791 75.6785068,6.38454791 C77.2176632,6.38454791 77.8946972,5.80533063 77.8946972,4.49959514 C77.8946972,3.34116059 77.3443027,2.80937922 76.1180918,2.80937922" id="Fill-19"></path>
                    <path d="M96.749851,11.7158435 L95.932783,9.09064103 L92.4623748,9.09064103 L91.6124292,11.7158435 L89.5387081,11.7158435 L93.2928374,1.08645749 L95.0682251,1.08645749 L98.8235721,11.7158435 L96.749851,11.7158435 Z M94.1890551,3.51817139 L92.994504,7.36796896 L95.399436,7.36796896 L94.1890551,3.51817139 Z" id="Fill-21"></path>
                    <path d="M116.894048,11.5701653 C115.794477,11.8285661 115.15032,11.9246862 114.285763,11.9246862 C110.845797,11.9246862 108.457912,9.67023279 108.457912,6.38467274 C108.457912,4.77310054 109.054579,3.37249325 110.16998,2.32640688 C111.237892,1.3265081 112.432443,0.908323212 114.223661,0.908323212 C114.977409,0.908323212 115.731157,0.98821525 116.391143,1.15049595 C116.894048,1.2790722 117.208212,1.39142038 117.931518,1.71348516 L117.460273,3.40494939 C117.08279,3.25889676 116.800286,3.16277665 116.611545,3.09911269 C115.872409,2.84071188 115.13449,2.71213563 114.474504,2.71213563 C112.149939,2.71213563 110.531633,4.1776552 110.531633,6.28730432 C110.531633,8.46186572 112.307021,10.1208738 114.615756,10.1208738 C115.088218,10.1208738 115.354892,10.0721896 115.967388,9.89492915 L115.967388,6.96389001 L117.94613,6.96389001 L117.94613,11.3130128 C117.476103,11.425361 117.13028,11.5065013 116.894048,11.5701653" id="Fill-23"></path>
                    <polygon id="Fill-25" points="129.93779 11.7158435 129.93779 1.08645749 136.253933 1.08645749 136.253933 2.80912955 131.91775 2.80912955 131.91775 5.43433198 135.467307 5.43433198 135.467307 7.15825236 131.91775 7.15825236 131.91775 9.99317139 136.457287 9.99317139 136.457287 11.7158435"></polygon>
                    <path d="M141.15008,3.09524291 C140.479135,3.09524291 139.933611,2.53724696 139.933611,1.84817814 C139.933611,1.16160594 140.479135,0.603609987 141.15008,0.603609987 C141.81859,0.603609987 142.364114,1.16160594 142.364114,1.84817814 C142.364114,2.53724696 141.81859,3.09524291 141.15008,3.09524291 L141.15008,3.09524291 Z M141.15008,0.797098516 C140.582638,0.797098516 140.12357,1.26771255 140.12357,1.84817814 C140.12357,2.43114035 140.582638,2.90050607 141.15008,2.90050607 C141.715087,2.90050607 142.174155,2.43114035 142.174155,1.84817814 C142.174155,1.26771255 141.715087,0.797098516 141.15008,0.797098516 L141.15008,0.797098516 Z M141.461808,2.56720648 L141.030747,1.97550607 L140.883407,1.97550607 L140.883407,2.56720648 L140.641087,2.56720648 L140.641087,1.13414305 L141.145209,1.13414305 C141.50808,1.13414305 141.668815,1.25522942 141.668815,1.53734818 C141.668815,1.77452767 141.528781,1.93306343 141.29255,1.95678138 L141.760141,2.56720648 L141.461808,2.56720648 Z M141.340039,1.35883941 C141.294985,1.33761808 141.224359,1.32513495 141.108679,1.32513495 L140.883407,1.32513495 L140.883407,1.80199055 L141.108679,1.80199055 C141.325427,1.80199055 141.428931,1.7208502 141.428931,1.54483806 C141.428931,1.46244939 141.393618,1.38630229 141.340039,1.35883941 L141.340039,1.35883941 Z" id="Fill-8"></path>
                </g>
                <g id="Outperform" transform="translate(130.000000, 29.000000)" fill="#F06000">
                    <path d="M2.88424832,8.09371429 C1.14369484,8.09371429 0,6.93371429 0,5.16342857 C0,2.87542857 1.81331339,1 4.02794316,1 C5.77986537,1 6.92242334,2.14971429 6.92242334,3.92114286 C6.92242334,6.21942857 5.10001496,8.09371429 2.88424832,8.09371429 M3.94495138,1.78742857 C2.35901272,1.78742857 0.927688856,3.33028571 0.927688856,5.04914286 C0.927688856,6.37485714 1.7826178,7.296 2.99793568,7.296 C4.56341062,7.296 5.98563949,5.74285714 5.98563949,4.02285714 C5.98563949,2.65714286 5.19210172,1.78742857 3.94495138,1.78742857" id="Fill-27"></path>
                    <path d="M11.6050262,7.75314286 L10.8217203,7.75314286 L11.1707405,5.93142857 C11.0684218,6.07542857 10.9865669,6.18971429 10.9342708,6.26285714 C10.6148093,6.67771429 10.4294989,6.89371429 10.1839342,7.14171429 C9.68825729,7.62971429 9.214181,7.888 8.80263276,7.888 C8.25693343,7.888 8,7.59771429 8,6.98628571 C8,6.84228571 8.00909499,6.72914286 8.02046372,6.64571429 L8.57525804,3.13485714 L9.36993269,3 L8.81286462,6.52114286 L8.78216904,6.72914286 C8.7708003,6.77942857 8.7708003,6.84228571 8.7708003,6.904 C8.7708003,7.11085714 8.83332835,7.21485714 8.96747943,7.21485714 C9.20508601,7.21485714 9.55410621,6.96685714 9.97588631,6.51085714 C10.3578758,6.09714286 10.7194016,5.64 10.9751982,5.248 C11.0684218,5.09257143 11.1514136,4.94742857 11.2128048,4.792 C11.2537322,4.688 11.2957966,4.54285714 11.336724,4.35657143 C11.3787883,4.20228571 11.3981152,4.07771429 11.4197158,3.97371429 L11.55273,3.13485714 L12.3451309,3 L11.6050262,7.75314286 Z" id="Fill-29"></path>
                    <path d="M14.5761556,6.81485714 C14.3601496,7.032 14.1839342,7.19771429 14.0486462,7.31314286 C13.699626,7.62285714 13.3199102,7.912 13.0209125,8.08914286 C12.8549289,8.192 12.7833059,8.21371429 12.5059088,8.25485714 C12.432012,8.11085714 12.3922214,7.94285714 12.3922214,7.696 C12.3922214,7.60228571 12.4024533,7.47771429 12.4126851,7.32228571 C12.432012,7.12571429 12.4536126,6.98171429 12.4638444,6.888 L12.9060883,4.08114286 L12,4.08114286 L12.0920868,3.50171429 L13.0106806,3.42857143 L13.2164547,2.13485714 L14.0099925,2 L13.7826178,3.42857143 L14.761466,3.42857143 L14.6568736,4.08114286 L13.6802992,4.08114286 L13.1846223,7.27085714 L13.4631563,7.04228571 L13.8428721,6.68 L14.1646073,6.39085714 L14.3908452,6.16342857 L14.7716978,6.61828571 L14.5761556,6.81485714 Z" id="Fill-31"></path>
                    <path d="M19.0916081,6.73828571 C18.6175318,7.568 17.9274495,8.00228571 17.113448,8.00228571 C16.7735228,8.00228571 16.4733882,7.93942857 16.1766642,7.79428571 L15.7742109,10.3325714 L15,10.3325714 L16.1141361,3.23885714 L16.9179058,3.104 L16.5882124,4.792 C16.6802992,4.65714286 16.7519222,4.54285714 16.8030815,4.48114286 C17.0202244,4.18057143 17.2680628,3.912 17.5465969,3.67314286 C17.9786088,3.29028571 18.5447719,3 18.8653702,3 C19.3792371,3 19.7384892,3.59085714 19.7384892,4.408 C19.7384892,5.17485714 19.5133882,6.01371429 19.0916081,6.73828571 M18.5959312,3.76685714 C18.4526851,3.76685714 18.1127599,3.984 17.7307704,4.336 C17.4738369,4.57485714 17.0315931,5.08114286 16.7939865,5.40228571 C16.5984443,5.68228571 16.4540613,6.01371429 16.4131339,6.29371429 L16.2778459,7.14285714 C16.547285,7.33028571 16.8030815,7.41142857 17.1327749,7.41142857 C18.1127599,7.41142857 18.9051608,6.08685714 18.9051608,4.46057143 C18.9051608,4.00457143 18.8028422,3.76685714 18.5959312,3.76685714" id="Fill-33"></path>
                    <path d="M22.9877038,4.81257143 L20.8140015,6.15885714 C20.7935378,6.25257143 20.7935378,6.28342857 20.7935378,6.39657143 C20.7935378,6.96685714 20.98908,7.27657143 21.3517427,7.27657143 C21.8542408,7.27657143 22.54546,6.78057143 23.1730142,5.96228571 L23.6163949,6.416 C22.7410022,7.41028571 21.9372326,7.93028571 21.2266866,7.93028571 C20.4126851,7.93028571 20,7.41028571 20,6.38628571 C20,4.57485714 21.1755273,3 22.5340912,3 C23.2048467,3 23.6266268,3.34285714 23.6266268,3.88114286 C23.6266268,4.264 23.4413164,4.53257143 22.9877038,4.81257143 M22.4431414,3.59085714 C21.7928497,3.59085714 21.133463,4.38857143 20.917457,5.43428571 L22.8637846,4.20114286 C22.8956171,4.11885714 22.9058489,4.05714286 22.9058489,4.01485714 C22.9058489,3.79657143 22.6796111,3.59085714 22.4431414,3.59085714" id="Fill-35"></path>
                    <path d="M27.0070307,3.85942857 C26.904712,3.79771429 26.8319521,3.77828571 26.7091698,3.77828571 C26.4920269,3.77828571 26.2964847,3.87085714 26.0702468,4.09828571 C25.708721,4.44114286 25.4415557,4.86514286 25.2664772,5.352 C25.1630217,5.63085714 25.0095438,6.24114286 24.9572476,6.59428571 L24.7719372,7.76342857 L24,7.76342857 L24.7310097,3.14514286 L25.5234106,3.01142857 L25.2460135,4.37714286 C25.8121765,3.39428571 26.2555572,3 26.7807928,3 C26.9967988,3 27.1309499,3.03085714 27.3162603,3.14514286 L27.0070307,3.85942857 Z" id="Fill-37"></path>
                    <path d="M31.1902767,1.056 C30.8207928,0.734857143 30.5729544,0.621714286 30.2011967,0.621714286 C29.9351683,0.621714286 29.6975617,0.704 29.5213463,0.859428571 C29.4178908,0.941714286 29.3360359,1.06628571 29.2655497,1.21142857 C29.1302618,1.45942857 29.1097981,1.55314286 29.0165744,2.16342857 L28.8835602,3.00228571 L29.8510396,3.00228571 L29.7475841,3.65485714 L28.7801047,3.65485714 L28.0695587,8.14971429 C27.8433209,9.58857143 27.1839342,10.3348571 26.1527898,10.3348571 C25.7207779,10.3348571 25.3910845,10.2308571 25,9.97257143 L25.422917,9.31885714 C25.7116829,9.54742857 25.9367838,9.64114286 26.1937173,9.64114286 C26.7928497,9.64114286 27.1327749,9.12228571 27.3180853,7.95314286 L27.9967988,3.65485714 L27.0918474,3.65485714 L27.1839342,3.07542857 L28.1002543,3.00228571 L28.2855647,1.832 C28.4708751,0.693714286 29.2234854,0 30.2841885,0 C30.7684966,0 31.169813,0.145142857 31.601825,0.497142857 L31.1902767,1.056 Z" id="Fill-39"></path>
                    <path d="M30.5541062,7.91885714 C29.6173224,7.91885714 29,7.17371429 29,6.03428571 C29,4.36685714 30.1209574,3 31.4908901,3 C32.4606432,3 33.0575019,3.736 33.0575019,4.92571429 C33.0575019,6.552 31.913807,7.91885714 30.5541062,7.91885714 M31.3885714,3.632 C30.9565595,3.632 30.5143156,3.95314286 30.1948542,4.50171429 C29.9254151,4.95657143 29.7810322,5.496 29.7810322,5.97257143 C29.7810322,6.75885714 30.1118624,7.288 30.6064024,7.288 C31.5136275,7.288 32.265101,6.21028571 32.265101,4.92571429 C32.265101,4.08571429 31.9547345,3.632 31.3885714,3.632" id="Fill-41"></path>
                    <path d="M37.0081675,3.85942857 C36.904712,3.79771429 36.833089,3.77828571 36.7091698,3.77828571 C36.4931638,3.77828571 36.2976215,3.87085714 36.0702468,4.09828571 C35.708721,4.44114286 35.4426926,4.86514286 35.2676141,5.352 C35.1641586,5.63085714 35.0095438,6.24114286 34.9583844,6.59428571 L34.773074,7.76342857 L34,7.76342857 L34.7310097,3.14514286 L35.5245475,3.01142857 L35.2471503,4.37714286 C35.8133134,3.39428571 36.2555572,3 36.7819297,3 C36.9979357,3 37.1309499,3.03085714 37.3162603,3.14514286 L37.0081675,3.85942857 Z" id="Fill-43"></path>
                    <path d="M44.303276,4.23314286 L43.7371129,7.816 L42.953807,7.816 L43.4995064,4.368 C43.5199701,4.21257143 43.5518025,3.99428571 43.5518025,3.912 C43.5518025,3.75657143 43.4790426,3.66285714 43.3551234,3.66285714 C43.1186537,3.66285714 42.7787285,3.90171429 42.3455797,4.37828571 C41.964727,4.78171429 41.6145699,5.22742857 41.3564996,5.64114286 C41.254181,5.80685714 41.1723261,5.96228571 41.1200299,6.09714286 C41.0893343,6.17028571 41.0484069,6.32457143 40.9858788,6.54285714 C40.9347195,6.71771429 40.9142558,6.832 40.9040239,6.90514286 L40.759641,7.816 L39.977472,7.816 L40.5231713,4.368 L40.5538669,4.15085714 C40.5640987,4.09828571 40.5743306,4.04685714 40.5743306,3.984 C40.5743306,3.76685714 40.5027076,3.66285714 40.3583246,3.66285714 C40.1309499,3.66285714 39.7796559,3.912 39.3590127,4.37828571 C38.9770232,4.792 38.6166343,5.248 38.3699327,5.632 C38.2664772,5.78628571 38.1846223,5.94171429 38.133463,6.08685714 C38.0607031,6.27314286 37.9583844,6.66628571 37.9163201,6.90514286 L37.7719372,7.816 L37,7.816 L37.7310097,3.19771429 L38.5245475,3.064 L38.1630217,4.94742857 C38.2664772,4.80228571 38.349469,4.69942857 38.4108601,4.62628571 C38.7200898,4.20342857 38.9054001,3.984 39.1634705,3.736 C39.6682423,3.23885714 40.1309499,3 40.5743306,3 C41.0995662,3 41.3564996,3.25942857 41.3564996,3.79885714 C41.3564996,4.13028571 41.2746447,4.58628571 41.1404936,4.94742857 C41.9135677,3.75657143 42.8503515,3 43.5404338,3 C44.0770381,3 44.3442034,3.25028571 44.3442034,3.76685714 C44.3442034,3.89142857 44.3237397,4.07771429 44.303276,4.23314286" id="Fill-45"></path>
                </g>
            </g>
        </g>
    </g>
</svg>