<?xml version="1.0" encoding="UTF-8"?>
<svg width="60px" height="60px" viewBox="0 0 60 60" version="1.1" xmlns="http://www.w3.org/2000/svg" xmlns:xlink="http://www.w3.org/1999/xlink">
    <!-- Generator: Sketch 45.1 (43504) - http://www.bohemiancoding.com/sketch -->
    <title>Onmichannel</title>
    <desc>Created with Sketch.</desc>
    <defs>
        <linearGradient x1="50%" y1="100%" x2="50%" y2="0%" id="linearGradient-1">
            <stop stop-color="#0076CC" offset="0%"></stop>
            <stop stop-color="#178DE3" offset="100%"></stop>
        </linearGradient>
    </defs>
    <g id="Page-1" stroke="none" stroke-width="1" fill="none" fill-rule="evenodd">
        <g id="Icons" transform="translate(-625.000000, -52.000000)" fill-rule="nonzero" fill="url(#linearGradient-1)">
            <g id="Property-Management" transform="translate(24.000000, 22.000000)">
                <g id="Omnichannel" transform="translate(590.000273, 30.000000)">
                    <path d="M67.8266548,40.7148243 C66.1197129,37.3035741 63.7975481,33.6661137 61.0049187,29.9924597 C69.455186,18.8478359 73.9969785,7.54938923 68.7253628,2.27718293 C67.6849123,1.2366159 65.7789277,0 62.5851971,0 C57.0964439,0 49.2463205,3.7279445 41.0011274,9.98944352 C32.7589502,3.7279445 24.9088268,0 19.4170578,0 C16.2233272,0 14.3173426,1.23963203 13.2768921,2.27718293 C8.00527638,7.55240537 12.5470689,18.8508521 20.9973362,29.9924597 C18.2077226,33.6691298 15.882542,37.3035741 14.1756,40.7148243 C9.24175375,50.5836224 10.9637747,55.4094405 13.2768921,57.7258332 C14.3143268,58.760368 16.2233272,60 19.4170578,60 C24.905811,60 32.7559344,56.2720555 41.0011274,50.0105565 C49.2433047,56.2720555 57.0934281,60 62.5851971,60 C65.7789277,60 67.6849123,58.760368 68.7253628,57.7258332 C71.0354644,55.4124566 72.7574853,50.5836224 67.8266548,40.7148243 Z M62.5851971,6.03227266 C63.2094674,6.03227266 64.0418277,6.11974061 64.4610237,6.5419997 C66.0624127,8.14356809 64.2559494,15.397376 57.0964439,25.1877545 C53.7036706,21.2577288 50.0786808,17.5961393 45.8625946,13.9466144 C52.979879,8.76187604 59.144171,6.03227266 62.5851971,6.03227266 Z M53.278443,30.0105565 C51.5322957,32.0705776 49.5961531,34.1999698 47.397636,36.3987332 C45.2383243,38.5582868 43.103139,40.4614689 41.0011274,42.2289247 C38.8991159,40.4614689 36.7639306,38.5582868 34.6046189,36.3987332 C32.4091176,34.1999698 30.4699592,32.0705776 28.7238119,30.0105565 C30.5393225,27.8600513 32.4995916,25.7095461 34.6046189,23.6012668 C36.7639306,21.4447293 38.8991159,19.5415473 41.0011274,17.7680591 C43.103139,19.5415473 45.2383243,21.4447293 47.397636,23.6012668 C49.5026633,25.7095461 51.4629323,27.8600513 53.278443,30.0105565 Z M17.5442469,6.5419997 C17.9634429,6.11974061 18.7958033,6.03227266 19.4170578,6.03227266 C22.8580838,6.03227266 29.0193601,8.76187604 36.1396603,13.9435983 C32.1708695,17.3850098 28.5066744,21.0164379 24.9088268,25.1847384 C17.7493212,15.3943598 15.9398422,8.14356809 17.5442469,6.5419997 Z M19.4170578,53.9677273 C18.7927875,53.9677273 17.9604271,53.8802594 17.5412311,53.4610164 C16.8506133,52.7703212 16.3861803,49.778314 19.5708635,43.4112502 C20.9340044,40.6846629 22.7615783,37.7831398 24.9239058,34.8273262 C28.361916,38.8086261 31.9507162,42.4310059 36.1396603,46.0594179 C29.0223759,51.2411401 22.8580838,53.9677273 19.4170578,53.9677273 Z M64.4580079,53.4610164 C64.0388119,53.8802594 63.2064516,53.9677273 62.5821813,53.9677273 C59.1411552,53.9677273 52.979879,51.2411401 45.8595788,46.0594179 C50.045507,42.434022 53.6343072,38.8116423 57.0753333,34.8273262 C59.2376608,37.7801237 61.0652347,40.6816468 62.4283756,43.4112502 C65.6130587,49.7813301 65.1486258,52.7703212 64.4580079,53.4610164 Z M41.0011274,36.0307646 C37.6699684,36.0307646 34.9695305,33.3300241 34.9695305,29.9984919 C34.9695305,26.6669597 37.6699684,23.9662193 41.0011274,23.9662193 C44.3322864,23.9662193 47.0327244,26.6669597 47.0327244,29.9984919 C47.0327244,33.3300241 44.3322864,36.0307646 41.0011274,36.0307646 Z" id="Onmichannel"></path>
                </g>
            </g>
        </g>
    </g>
</svg>