<?xml version="1.0" encoding="UTF-8"?>
<svg width="24px" height="24px" viewBox="0 0 24 24" version="1.1" xmlns="http://www.w3.org/2000/svg" xmlns:xlink="http://www.w3.org/1999/xlink">
    <!-- Generator: Sketch 47.1 (45422) - http://www.bohemiancoding.com/sketch -->
    <title>Icon/Client Portal</title>
    <desc>Created with Sketch.</desc>
    <defs>
        <path d="M20,6.999 L17,6.999 L17,4.999 C17,3.897 16.103,2.999 15,2.999 L9,2.999 C7.897,2.999 7,3.897 7,4.999 L7,6.999 L4,6.999 C2.346,6.999 1,8.345 1,9.999 L1,13.999 L2,13.999 L2,18.999 C2,20.653 3.346,21.999 5,21.999 L19,21.999 C20.654,21.999 22,20.653 22,18.999 L22,13.999 L23,13.999 L23,9.999 C23,8.345 21.654,6.999 20,6.999 Z M9,4.999 L15,4.999 L15,6.999 L9,6.999 L9,4.999 Z M20,18.999 C20,19.552 19.551,19.999 19,19.999 L5,19.999 C4.449,19.999 4,19.552 4,18.999 L4,13.999 L8,13.999 C8,15.102 8.897,15.999 10,15.999 L14,15.999 C15.103,15.999 16,15.102 16,13.999 L20,13.999 L20,18.999 Z M10,13.999 L10,11.999 L14,11.999 L13.997,13.999 L10,13.999 Z M21,11.999 L16,11.999 C16,10.897 15.103,9.999 14,9.999 L10,9.999 C8.897,9.999 8,10.897 8,11.999 L3,11.999 L3,9.999 C3,9.448 3.449,8.999 4,8.999 L20,8.999 C20.551,8.999 21,9.448 21,9.999 L21,11.999 Z" id="path-cp"></path>
    </defs>
    <g id="Symbols-cp" stroke="none" stroke-width="1" fill="none" fill-rule="evenodd">
        <g id="Icon/Client-Portal">
            <rect id="Bounding-Box" x="0" y="0" width="24" height="24"></rect>
            <mask id="mask-cp" fill="white">
                <use xlink:href="#path-cp"></use>
            </mask>
            <g id="Mask"></g>
            <g id="Mixin/Fill/Black" mask="url(#mask-cp)" fill="#303436">
                <rect id="Rectangle" x="0" y="0" width="24" height="24"></rect>
            </g>
            <g id="education-online" mask="url(#mask-cp)">
                <g id="Frame_-_24px">
                    <rect id="Rectangle-path" x="0" y="0" width="24" height="24"></rect>
                </g>
                <g id="Line_Icons" transform="translate(8.000000, 9.000000)">
                    <g id="Group"></g>
                </g>
            </g>
            <g id="toolbox" mask="url(#mask-cp)">
                <g id="Frame_-_24px">
                    <rect id="Rectangle-path" x="0" y="0" width="24" height="24"></rect>
                </g>
                <g id="Line_Icons" transform="translate(3.000000, 8.000000)"></g>
            </g>
        </g>
    </g>
</svg>
