<?xml version="1.0" encoding="UTF-8"?>
<svg width="60px" height="60px" viewBox="0 0 60 60" version="1.1" xmlns="http://www.w3.org/2000/svg" xmlns:xlink="http://www.w3.org/1999/xlink">
    <!-- Generator: Sketch 46.2 (44496) - http://www.bohemiancoding.com/sketch -->
    <title>Resident &amp; Utility Management</title>
    <desc>Created with Sketch.</desc>
    <defs>
        <linearGradient x1="50%" y1="100%" x2="50%" y2="0%" id="linearGradient-1">
            <stop stop-color="#0076CC" offset="0%"></stop>
            <stop stop-color="#178DE3" offset="100%"></stop>
        </linearGradient>
    </defs>
    <g id="Page-1" stroke="none" stroke-width="1" fill="none" fill-rule="evenodd">
        <g id="Icons" transform="translate(-374.000000, -242.000000)" fill-rule="nonzero" fill="url(#linearGradient-1)">
            <g id="Resident-Services" transform="translate(24.000000, 212.000000)">
                <g id="Resident-&amp;-Utility-Management" transform="translate(325.000000, 30.000000)">
                    <path d="M47.5,57.5 L47.5,52.5 L62.5,52.5 L62.5,57.5 L57.5,57.5 L57.5,60 L52.5,60 L52.5,57.5 L47.5,57.5 Z M55,12.5 C64.6475,12.5 72.5,20.35 72.5,30 C72.5,36.7875 68.5475,42.925 62.5,45.7975 L62.5,47.5 C62.5,48.88 61.3825,50 60,50 L50,50 C48.6175,50 47.5,48.88 47.5,47.5 L47.5,45.7975 C41.4525,42.925 37.5,36.785 37.5,30 C37.5,20.35 45.3525,12.5 55,12.5 Z M52.5,0 L57.5,0 L57.5,10 L52.5,10 L52.5,0 Z M25,27.5 L35,27.5 L35,32.5 L25,32.5 L25,27.5 Z M75,27.5 L85,27.5 L85,32.5 L75,32.5 L75,27.5 Z M75.730135,5.731054 L79.264367,9.2642865 L71.7648645,16.7659105 L68.2306325,13.232678 L75.730135,5.731054 Z M34.2676022,5.73235225 L41.7681655,13.2329155 L38.2344332,16.7666477 L30.73387,9.2660845 L34.2676022,5.73235225 Z"></path>
                </g>
            </g>
        </g>
    </g>
</svg>