<?xml version="1.0" encoding="UTF-8"?>
<svg width="60px" height="60px" viewBox="0 0 60 60" version="1.1" xmlns="http://www.w3.org/2000/svg" xmlns:xlink="http://www.w3.org/1999/xlink">
    <!-- Generator: Sketch 45.1 (43504) - http://www.bohemiancoding.com/sketch -->
    <title>RealPage Accounting</title>
    <desc>Created with Sketch.</desc>
    <defs>
        <linearGradient x1="50%" y1="100%" x2="50%" y2="0%" id="linearGradient-1">
            <stop stop-color="#0076CC" offset="0%"></stop>
            <stop stop-color="#178DE3" offset="100%"></stop>
        </linearGradient>
    </defs>
    <g id="Page-1" stroke="none" stroke-width="1" fill="none" fill-rule="evenodd">
        <g id="Icons" transform="translate(-499.000000, -52.000000)" fill-rule="nonzero" fill="url(#linearGradient-1)">
            <g id="Property-Management" transform="translate(24.000000, 22.000000)">
                <g id="RealPage-Accounting" transform="translate(470.000000, 30.000000)">
                    <path d="M32.2727273,0 L32.2727273,27.2727273 L5,27.2727273 L5,5.45454545 C5,2.44363636 7.44363636,0 10.4545455,0 L32.2727273,0 Z M21.3636364,21.8181818 L21.3636364,16.3636364 L26.8181818,16.3636364 L26.8181818,10.9090909 L21.3636364,10.9090909 L21.3636364,5.45454545 L15.9090909,5.45454545 L15.9090909,10.9090909 L10.4545455,10.9090909 L10.4545455,16.3636364 L15.9090909,16.3636364 L15.9090909,21.8181818 L21.3636364,21.8181818 Z M37.7272727,60 L37.7272727,32.7272727 L65,32.7272727 L65,54.5454545 C65,57.5536364 62.5563636,60 59.5454545,60 L37.7272727,60 Z M43.1818182,38.1818182 L43.1818182,43.6363636 L59.5454545,43.6363636 L59.5454545,38.1818182 L43.1818182,38.1818182 Z M59.5454545,49.0909091 L43.1818182,49.0909091 L43.1818182,54.5454545 L59.5454545,54.5454545 L59.5454545,49.0909091 Z M5,32.7272727 L32.2727273,32.7272727 L32.2727273,60 L10.4545455,60 C7.44363636,60 5,57.5536364 5,54.5454545 L5,32.7272727 Z M26.0190909,49.89 L22.4927273,46.3636364 L26.0190909,42.8345455 L22.1627273,38.9809091 L18.6363636,42.51 L15.11,38.9809091 L11.2536364,42.8345455 L14.78,46.3636364 L11.2536364,49.8927273 L15.11,53.7463636 L18.6363636,50.2227273 L22.1627273,53.7436364 L26.0190909,49.89 Z M59.5454545,0 C62.5563636,0 65,2.44363636 65,5.45454545 L65,27.2727273 L37.7272727,27.2727273 L37.7272727,0 L59.5454545,0 Z M59.5454545,16.3636364 L59.5454545,10.9090909 L43.1818182,10.9090909 L43.1818182,16.3636364 L59.5454545,16.3636364 Z"></path>
                </g>
            </g>
        </g>
    </g>
</svg>