<?xml version="1.0" encoding="UTF-8"?>
<svg width="60px" height="60px" viewBox="0 0 60 60" version="1.1" xmlns="http://www.w3.org/2000/svg" xmlns:xlink="http://www.w3.org/1999/xlink">
    <!-- Generator: Sketch 45.1 (43504) - http://www.bohemiancoding.com/sketch -->
    <title>Spend Management</title>
    <desc>Created with Sketch.</desc>
    <defs>
        <linearGradient x1="50%" y1="100%" x2="50%" y2="0%" id="linearGradient-1">
            <stop stop-color="#0076CC" offset="0%"></stop>
            <stop stop-color="#178DE3" offset="100%"></stop>
        </linearGradient>
    </defs>
    <g id="Page-1" stroke="none" stroke-width="1" fill="none" fill-rule="evenodd">
        <g id="Icons" transform="translate(-361.000000, -52.000000)" fill-rule="nonzero" fill="url(#linearGradient-1)">
            <g id="Property-Management" transform="translate(24.000000, 22.000000)">
                <g id="Spend-Management" transform="translate(326.000000, 30.000000)">
                    <path d="M31,60 C28.2385763,60 26,57.7614237 26,55 C26,52.2385763 28.2385763,50 31,50 C33.7614237,50 36,52.2385763 36,55 C36,57.7614237 33.7614237,60 31,60 Z M51,60 C48.2385763,60 46,57.7614237 46,55 C46,52.2385763 48.2385763,50 51,50 C53.7614237,50 56,52.2385763 56,55 C56,57.7614237 53.7614237,60 51,60 Z M61,10 L71,10 L71,15 L62.9875,15 L55.9375,45.5625 C55.6725,46.6975 54.665,47.5 53.5,47.5 L28.5,47.5 C27.3525,47.5 26.3525,46.72 26.0725,45.605 L23.375,34.8075 C24.2375,34.9225 25.1075,35 26,35 C34.39,35 41.565,29.8275 44.5325,22.5 L56.1275,22.5 L58.5625,11.9375 C58.8275,10.8025 59.835,10 61,10 Z M23.505,30.0025 L23.505,27.2475 C21.9125,26.9225 20.4325,26.2875 19.1225,25.4175 L17.1675,27.3775 L13.6275,23.845 L15.5875,21.885 C14.715,20.5725 14.08,19.095 13.755,17.5 L11,17.5 L11,12.5 L13.755,12.5 C14.08,10.9075 14.715,9.43 15.585,8.1175 L13.6275,6.16 L17.1625,2.625 L19.12,4.5825 C20.4325,3.715 21.91,3.075 23.505,2.755 L23.505,0 L28.505,0 L28.505,2.755 C30.0975,3.075 31.5725,3.715 32.8825,4.58 L34.8425,2.62 L38.3775,6.155 L36.42,8.115 C37.2875,9.425 37.925,10.905 38.25,12.5 L41.005,12.5 L41.005,17.5 L38.25,17.5 C37.9275,19.0925 37.29,20.5675 36.4225,21.88 L38.3825,23.8375 L34.8475,27.3725 L32.89,25.415 C31.5775,26.2825 30.1,26.9225 28.505,27.245 L28.505,30.0025 L23.505,30.0025 Z M21,15 C21,17.7575 23.235,20 26,20 C28.7575,20 31,17.7575 31,15 C31,12.24 28.7575,10 26,10 C23.235,10 21,12.24 21,15 Z"></path>
                </g>
            </g>
        </g>
    </g>
</svg>