<?xml version="1.0" encoding="utf-8"?>
<!-- Generator: Adobe Illustrator 20.0.0, SVG Export Plug-In . SVG Version: 6.00 Build 0)  -->
<svg version="1.1" id="Layer_1" xmlns="http://www.w3.org/2000/svg" xmlns:xlink="http://www.w3.org/1999/xlink" x="0px" y="0px"
	 viewBox="0 0 100 100" style="enable-background:new 0 0 100 100;" xml:space="preserve">
<style type="text/css">
	.st0{fill:#25747F;}
	.st1{fill:#00B3CC;}
	.st2{fill:#9BEBF9;}
	.st3{fill:none;stroke:#9BEBF9;stroke-miterlimit:10;}
</style>
<circle class="st0" cx="38" cy="86.9" r="7.5"/>
<circle class="st0" cx="77.2" cy="86.9" r="7.5"/>
<path class="st1" d="M98.4,12.3l-80.8-0.2l-1.7-6.5H0v4h12.8L24.3,54c-2.6,3.4-3.1,7.9-1.4,11.9c1.9,4.5,6.6,7.3,11.5,7.3h51.1
	c0.9,0,1.6-0.7,1.6-1.6v-0.8c0-0.9-0.7-1.6-1.6-1.6H34.3c-3.2,0-6.2-1.7-7.5-4.6c-1.3-2.7-1-5.7,0.7-8.1H76c9.7,0,18.1-7,19.7-16.7
	l4.3-25.7C100.1,13.2,99.4,12.3,98.4,12.3z"/>
</svg>
