<?xml version="1.0" encoding="UTF-8"?>
<svg width="60px" height="60px" viewBox="0 0 60 60" version="1.1" xmlns="http://www.w3.org/2000/svg" xmlns:xlink="http://www.w3.org/1999/xlink">
    <!-- Generator: Sketch 45.1 (43504) - http://www.bohemiancoding.com/sketch -->
    <title>Online Leasing</title>
    <desc>Created with Sketch.</desc>
    <defs>
        <linearGradient x1="50%" y1="100%" x2="50%" y2="0%" id="linearGradient-1">
            <stop stop-color="#0076CC" offset="0%"></stop>
            <stop stop-color="#178DE3" offset="100%"></stop>
        </linearGradient>
    </defs>
    <g id="Page-1" stroke="none" stroke-width="1" fill="none" fill-rule="evenodd">
        <g id="Icons" transform="translate(-757.000000, -52.000000)" fill-rule="nonzero" fill="url(#linearGradient-1)">
            <g id="Property-Management" transform="translate(24.000000, 22.000000)">
                <g id="Online-Leasing" transform="translate(732.000545, 30.000000)">
                    <path d="M27.7669546,27.500625 L27.7669546,16.035625 L30.9994546,19.265625 L34.5344546,15.733125 L19.5344546,0.733125 C18.5569546,-0.244375 16.9769546,-0.244375 15.9994546,0.733125 L0.999454622,15.733125 L4.53445462,19.265625 L7.76695462,16.035625 L7.76695462,27.500625 C7.76695462,28.883125 8.88445462,30.000625 10.2669546,30.000625 L25.2669546,30.000625 C26.6494546,30.000625 27.7669546,28.883125 27.7669546,27.500625 Z M20.2669546,25.000625 L15.2669546,25.000625 L15.2669546,17.500625 L20.2669546,17.500625 L20.2669546,25.000625 Z M20.2669546,49.998125 C23.0269546,49.998125 25.2669546,52.240625 25.2669546,54.998125 C25.2669546,57.768125 23.0269546,59.998125 20.2669546,59.998125 C17.5069546,59.998125 15.2669546,57.768125 15.2669546,54.998125 C15.2669546,52.240625 17.5069546,49.998125 20.2669546,49.998125 Z M40.2669546,49.998125 C43.0269546,49.998125 45.2669546,52.240625 45.2669546,54.998125 C45.2669546,57.768125 43.0269546,59.998125 40.2669546,59.998125 C37.5069546,59.998125 35.2669546,57.768125 35.2669546,54.998125 C35.2669546,52.240625 37.5069546,49.998125 40.2669546,49.998125 Z M50.2669546,9.998125 L50.2669546,9.995625 L60.2669546,9.995625 L60.2669546,14.995625 L52.2569546,14.995625 L45.2044546,45.558125 C44.9419546,46.693125 43.9319546,47.495625 42.7669546,47.495625 L17.7669546,47.495625 C16.6194546,47.495625 15.6194546,46.715625 15.3419546,45.603125 L13.8494546,39.638125 C15.1244546,39.860625 16.4269546,40.000625 17.7669546,40.000625 C28.4744546,40.000625 37.4144546,32.515625 39.6894546,22.498125 L45.3919546,22.498125 L47.8294546,11.938125 C48.0919546,10.803125 49.1019546,9.998125 50.2669546,9.998125 Z"></path>
                </g>
            </g>
        </g>
    </g>
</svg>