<?xml version="1.0" encoding="UTF-8"?>
<svg width="60px" height="60px" viewBox="0 0 60 60" version="1.1" xmlns="http://www.w3.org/2000/svg" xmlns:xlink="http://www.w3.org/1999/xlink">
    <!-- Generator: Sketch 46.2 (44496) - http://www.bohemiancoding.com/sketch -->
    <title>Windsor Compliance</title>
    <desc>Created with Sketch.</desc>
    <defs>
        <linearGradient x1="50%" y1="100%" x2="50%" y2="0%" id="linearGradient-1">
            <stop stop-color="#0076CC" offset="0%"></stop>
            <stop stop-color="#178DE3" offset="100%"></stop>
        </linearGradient>
    </defs>
    <g id="Page-1" stroke="none" stroke-width="1" fill="none" fill-rule="evenodd">
        <g id="Icons" transform="translate(-1126.000000, -52.000000)" fill-rule="nonzero" fill="url(#linearGradient-1)">
            <g id="Property-Management" transform="translate(24.000000, 22.000000)">
                <g id="Windsor-Compliance" transform="translate(1094.000000, 30.000000)">
                    <path d="M50.8236283,2.87154204 C46.9351513,1.03005018 42.5876753,0 38,0 C21.431,0 8,13.431 8,30 C8,46.569 21.431,60 38,60 C54.569,60 68,46.569 68,30 C68,25.9235958 67.1868564,22.0371309 65.7139831,18.493885 C65.6722474,18.5176025 65.6306348,18.5414677 65.5891329,18.5655283 C61.4359166,20.9731123 57.5645031,23.7918864 53.7577494,26.7053311 C48.8874533,30.4327188 44.0556805,34.2124668 39.1303864,37.8657807 C35.1276714,40.8349358 30.872139,43.4152345 26.3265045,45.4869429 C25.8309031,45.7127625 25.3209329,45.9070666 24.7647594,46 C24.8805773,45.9229484 24.9903255,45.8343576 25.1129562,45.77021 C30.4684487,42.9729011 35.3036898,39.4048279 39.9207969,35.5481523 C45.2460653,31.0998791 50.4651775,26.5243032 55.741022,22.0164732 C58.4261385,19.7224193 61.1067956,17.4196801 64.1028242,15.5262699 C64.1474281,15.4981742 64.1924807,15.4707079 64.2375237,15.4432587 C63.3301262,13.8113559 62.2749,12.272953 61.0899537,10.8461429 C58.3498868,12.8781338 55.581518,14.8777076 52.9364955,17.0284664 C47.7613568,21.2366512 42.7072385,25.5939762 37.5324715,29.8025333 C33.7799726,32.8544475 29.8133036,35.6177593 25.5367134,37.9028796 C24.5545531,38.427724 23.539939,38.8913986 22.5370926,39.3767866 C22.3789114,39.4533419 22.2040078,39.4952798 21.9692753,39.4483788 C22.0771656,39.3533361 22.1735359,39.2390615 22.2945563,39.1659803 C27.8192544,35.8294342 32.7540864,31.7246052 37.5152536,27.4005327 C42.7746235,22.6239526 47.970696,17.7768969 53.2625197,13.0371676 C55.0610899,11.4262723 57.0022301,9.9735573 58.9196207,8.49797276 C57.471102,7.0884655 55.8806871,5.82406366 54.1718652,4.72823579 C50.8517827,7.10755981 47.7482479,9.75395784 44.7006684,12.4707575 C39.968115,16.689737 35.2718554,20.9507785 30.4885155,25.1113179 C27.5254362,27.6886388 24.3248993,29.9664386 20.938806,31.9684159 C20.6572509,32.1348027 20.3621941,32.2784835 20,32.348835 C20.1045458,32.2504422 20.1978194,32.1355472 20.3151237,32.056014 C24.883674,28.9584396 28.9369277,25.2459411 32.8186224,21.3537796 C38.506828,15.6500985 44.1096876,9.86080444 49.7352153,4.09471275 C50.1159338,3.70448527 50.4722999,3.29048366 50.8236283,2.87154204 Z"></path>
                </g>
            </g>
        </g>
    </g>
</svg>