<?xml version="1.0" encoding="utf-8"?>
<!-- Generator: Adobe Illustrator 20.0.0, SVG Export Plug-In . SVG Version: 6.00 Build 0)  -->
<svg version="1.1" id="Layer_1" xmlns="http://www.w3.org/2000/svg" xmlns:xlink="http://www.w3.org/1999/xlink" x="0px" y="0px"
	 viewBox="0 0 100 100" style="enable-background:new 0 0 100 100;" xml:space="preserve">
<style type="text/css">
	.st0{fill:#25747F;}
	.st1{fill:#00B3CC;}
	.st2{fill:#9BEBF9;}
	.st3{fill:none;stroke:#9BEBF9;stroke-miterlimit:10;}
</style>
<g>
	<path class="st0" d="M66.7,9.1h-7.6C59.1,4.1,55,0,50,0s-9.1,4.1-9.1,9.1h-7.6c-2.3,0-4.1,1.8-4.1,4.1v12.7h41.5V13.2
		C70.8,10.9,68.9,9.1,66.7,9.1z M50,13.1c-2.2,0-4.1-1.8-4.1-4.1C45.9,6.8,47.8,5,50,5c2.2,0,4.1,1.8,4.1,4.1
		C54.1,11.3,52.2,13.1,50,13.1z"/>
</g>
<path class="st0" d="M50,37.8c-10.7,0-19.4,8.7-19.4,19.4c0,10.7,8.7,19.4,19.4,19.4c10.7,0,19.4-8.7,19.4-19.4
	C69.4,46.4,60.7,37.8,50,37.8z M55.5,66.1c-1,1-2.4,1.6-4.2,1.8v2.8h-2.3v-2.8c-1.8-0.2-3.3-0.8-4.4-1.9c-1.2-1.1-1.7-2.7-1.7-4.8
	l0-0.1h4.1c0,1.3,0.3,2.2,0.9,2.7c0.6,0.6,1.3,0.8,2.2,0.8c0.9,0,1.5-0.2,2-0.7c0.5-0.5,0.7-1.1,0.7-1.9c0-0.8-0.2-1.4-0.7-1.9
	s-1.2-0.9-2.3-1.4c-2.1-0.8-3.7-1.6-4.7-2.6c-1-0.9-1.5-2.3-1.5-4c0-1.6,0.5-2.9,1.5-3.9c1-1,2.4-1.6,4.1-1.8v-3.1h2.3v3.1
	c1.7,0.2,3,0.9,4,2.1c1,1.2,1.4,2.6,1.4,4.5l0,0.1h-4.1c0-1.1-0.2-2-0.7-2.6c-0.5-0.6-1.1-0.9-1.9-0.9c-0.8,0-1.4,0.2-1.8,0.7
	c-0.4,0.5-0.6,1.1-0.6,1.9c0,0.7,0.2,1.3,0.6,1.8c0.4,0.5,1.2,0.9,2.3,1.4c2.1,0.8,3.7,1.7,4.7,2.7c1,0.9,1.5,2.3,1.5,4
	C57,63.8,56.5,65.1,55.5,66.1z"/>
<path class="st1" d="M84.2,14.2H70.8v7h7.6V93H21.6V21.2h7.6v-7H15.8c-0.9,0-1.6,0.7-1.6,1.6v82.5c0,0.9,0.7,1.6,1.6,1.6h68.4
	c0.9,0,1.6-0.7,1.6-1.6V15.8C85.9,14.9,85.1,14.2,84.2,14.2z"/>
</svg>
