<?xml version="1.0" encoding="utf-8"?>
<!-- Generator: Adobe Illustrator 20.0.0, SVG Export Plug-In . SVG Version: 6.00 Build 0)  -->
<svg version="1.1" id="Layer_1" xmlns="http://www.w3.org/2000/svg" xmlns:xlink="http://www.w3.org/1999/xlink" x="0px" y="0px"
	 viewBox="0 0 100 100" style="enable-background:new 0 0 100 100;" xml:space="preserve">
<style type="text/css">
	.st0{fill:#25747F;}
	.st1{fill:#00B3CC;}
	.st2{fill:#9BEBF9;}
	.st3{fill:none;stroke:#9BEBF9;stroke-miterlimit:10;}
</style>
<path class="st1" d="M52.1,23.6l-4.6-5.8H10.1v37.3c2.4-1.1,5-1.8,7.8-1.8c9.9,0,17.9,8,17.9,17.9c0,2.9-0.7,5.6-1.9,8H100V23.6
	H52.1z"/>
<polygon class="st2" points="15.2,10.9 15.2,17.9 47.5,17.9 52.1,23.6 94.9,23.6 94.9,10.9 "/>
<path class="st0" d="M17.9,53.3C8,53.3,0,61.4,0,71.2c0,9.9,8,17.9,17.9,17.9s17.9-8,17.9-17.9C35.8,61.4,27.8,53.3,17.9,53.3z
	 M23,79.6c-0.9,0.9-2.2,1.5-3.8,1.6v2.6H17v-2.6c-1.6-0.2-3-0.8-4.1-1.7S11.4,77,11.4,75l0-0.1h3.8c0,1.2,0.3,2,0.8,2.5
	c0.5,0.5,1.2,0.8,2.1,0.8c0.8,0,1.4-0.2,1.8-0.6c0.4-0.4,0.6-1,0.6-1.7c0-0.7-0.2-1.3-0.6-1.7c-0.4-0.4-1.1-0.9-2.1-1.3
	c-2-0.7-3.4-1.5-4.3-2.4c-0.9-0.9-1.4-2.1-1.4-3.7c0-1.5,0.5-2.7,1.4-3.6c0.9-0.9,2.2-1.5,3.8-1.7v-2.8h2.1v2.9
	c1.5,0.2,2.8,0.9,3.7,1.9c0.9,1.1,1.3,2.4,1.3,4.1l0,0.1h-3.8c0-1-0.2-1.8-0.6-2.4c-0.4-0.6-1-0.8-1.7-0.8c-0.8,0-1.3,0.2-1.7,0.7
	c-0.4,0.4-0.6,1-0.6,1.7c0,0.7,0.2,1.2,0.6,1.7s1.1,0.8,2.2,1.3c1.9,0.8,3.4,1.6,4.3,2.5c0.9,0.9,1.4,2.1,1.4,3.7
	C24.4,77.4,23.9,78.6,23,79.6z"/>
</svg>
