<?xml version="1.0" encoding="utf-8"?>
<!-- Generator: Adobe Illustrator 20.0.0, SVG Export Plug-In . SVG Version: 6.00 Build 0)  -->
<svg version="1.1" id="Layer_1" xmlns="http://www.w3.org/2000/svg" xmlns:xlink="http://www.w3.org/1999/xlink" x="0px" y="0px"
	 viewBox="0 0 100 100" style="enable-background:new 0 0 100 100;" xml:space="preserve">
<style type="text/css">
	.st0{fill:#25747F;}
	.st1{fill:#00B3CC;}
	.st2{fill:#9BEBF9;}
	.st3{fill:none;stroke:#9BEBF9;stroke-miterlimit:10;}
</style>
<path class="st0" d="M68.5,49.9l-3.9-3.7v-9.9c0-0.3-0.2-0.5-0.5-0.5h-4.9c-0.3,0-0.5,0.2-0.5,0.5v4l-6.7-6.7l-1.4-1.4
	c-0.4-0.4-1-0.4-1.3,0L48,33.6L31.5,49.9c-0.3,0.3-0.1,0.9,0.4,0.9h3.5v17.3H46V56.7h8.1v11.4h10.6V50.8h3.5
	C68.6,50.8,68.9,50.2,68.5,49.9z"/>
<path class="st1" d="M50,0.1L9.5,18.7c0,0,0,24.3,0,44.7c0,20.1,32.8,36.4,40.5,36.4c7.7,0,40.5-16.4,40.5-36.4
	c0-20.4,0-44.7,0-44.7L50,0.1z M83.1,62.5c0,3.6-1.8,11.1-14.2,20c-8.7,6.3-17.2,9.2-18.9,9.3c-1.7,0-10.2-2.9-18.9-9.3
	c-12.3-8.9-14.2-16.4-14.2-20V23.4L50,8.2l33.1,15.2V62.5z"/>
<path class="st2" d="M50,8.2L16.9,23.4v39.1c0,3.6,1.8,11.1,14.2,20c8.7,6.3,17.2,9.2,18.9,9.3c1.7,0,10.2-2.9,18.9-9.3
	c12.3-8.9,14.2-16.4,14.2-20V23.4L50,8.2z M68.2,50.8h-3.5v17.3H54.1V56.7H46v11.4H35.4V50.8h-3.5c-0.5,0-0.7-0.6-0.4-0.9L48,33.6
	l1.4-1.4c0.4-0.4,1-0.4,1.3,0l1.4,1.4l6.7,6.7v-4c0-0.3,0.2-0.5,0.5-0.5h4.9c0.3,0,0.5,0.2,0.5,0.5v9.9l3.9,3.7
	C68.9,50.2,68.6,50.8,68.2,50.8z"/>
</svg>
