<?xml version="1.0" encoding="utf-8"?>
<!-- Generator: Adobe Illustrator 20.0.0, SVG Export Plug-In . SVG Version: 6.00 Build 0)  -->
<svg version="1.1" id="Layer_1" xmlns="http://www.w3.org/2000/svg" xmlns:xlink="http://www.w3.org/1999/xlink" x="0px" y="0px"
	 viewBox="0 0 100 100" style="enable-background:new 0 0 100 100;" xml:space="preserve">
<style type="text/css">
	.st0{fill:#25747F;}
	.st1{fill:#00B3CC;}
	.st2{fill:#9BEBF9;}
	.st3{fill:none;stroke:#9BEBF9;stroke-miterlimit:10;}
</style>
<path class="st0" d="M77.1,55.1L72.8,51V40c0-0.3-0.2-0.6-0.6-0.6h-5.5c-0.3,0-0.6,0.2-0.6,0.6v4.4L58.9,37l-1.5-1.5
	c-0.4-0.4-1.1-0.4-1.5,0L54.3,37L36.1,55c-0.4,0.4-0.1,1,0.4,1h3.9v19.1h11.7V62.6h8.9v12.6h11.7V56h3.9
	C77.2,56,77.4,55.4,77.1,55.1z"/>
<path class="st0" d="M97.6,12H4.7V3.2C4.7,2,3.7,1,2.4,1S0.2,2,0.2,3.2v93.5c0,1.3,1,2.3,2.3,2.3s2.3-1,2.3-2.3V16.6h27.9v9.9h4.6
	v-9.9h40v9.9h4.6v-9.9h15.8c1.3,0,2.3-1,2.3-2.3S98.9,12,97.6,12z"/>
<path class="st2" d="M95,26.5H18.1c-2,0-3.6,1.6-3.6,3.6v50.2c0,2,1.6,3.6,3.6,3.6H95c2,0,3.6-1.6,3.6-3.6V30
	C98.6,28.1,97,26.5,95,26.5z M76.7,56h-3.9v19.1H61.1V62.6h-8.9v12.6H40.4V56h-3.9c-0.5,0-0.8-0.6-0.4-1L54.3,37l1.5-1.5
	c0.4-0.4,1.1-0.4,1.5,0l1.5,1.5l7.4,7.4V40c0-0.3,0.2-0.6,0.6-0.6h5.5c0.3,0,0.6,0.2,0.6,0.6v11l4.3,4.1C77.4,55.4,77.2,56,76.7,56z
	"/>
</svg>
