<?xml version="1.0" encoding="UTF-8"?>
<svg width="53px" height="60px" viewBox="0 0 53 60" version="1.1" xmlns="http://www.w3.org/2000/svg" xmlns:xlink="http://www.w3.org/1999/xlink">
    <!-- Generator: Sketch 46.2 (44496) - http://www.bohemiancoding.com/sketch -->
    <title>Renters Insurance</title>
    <desc>Created with Sketch.</desc>
    <defs>
        <linearGradient x1="50%" y1="100%" x2="50%" y2="0%" id="linearGradient-1">
            <stop stop-color="#0076CC" offset="0%"></stop>
            <stop stop-color="#178DE3" offset="100%"></stop>
        </linearGradient>
    </defs>
    <g id="Page-1" stroke="none" stroke-width="1" fill="none" fill-rule="evenodd">
        <g id="Icons" transform="translate(-501.000000, -242.000000)" fill-rule="nonzero" fill="url(#linearGradient-1)">
            <g id="Resident-Services" transform="translate(24.000000, 212.000000)">
                <g id="Resident-&amp;-Utility-Management" transform="translate(472.000000, 30.000000)">
                    <path d="M55.8304348,13.3721739 C56.66,13.833913 57.173913,14.7052174 57.173913,15.6521739 C57.173913,17.4626087 56.8765217,60 31.0869565,60 C5.2973913,60 5,17.4626087 5,15.6521739 C5,14.7052174 5.51130435,13.833913 6.33826087,13.3721739 L29.8165217,0.328695652 C30.6069565,-0.109565217 31.5617391,-0.109565217 32.3521739,0.328695652 L55.8304348,13.3721739 Z M32.2652986,17.6037967 C31.4602363,16.7987344 30.1589591,16.7987344 29.3538969,17.6037967 L17,29.9576936 L19.9114017,32.8690953 L22.5736665,30.2068305 L22.5736665,39.6493257 C22.5736665,40.7879432 23.4940318,41.7083085 24.6326493,41.7083085 L36.9865462,41.7083085 C38.1251636,41.7083085 39.045529,40.7879432 39.045529,39.6493257 L39.045529,30.2068305 L41.7077937,32.8690953 L44.6191954,29.9576936 L32.2652986,17.6037967 Z M32.8685805,37.5903429 L28.7506149,37.5903429 L28.7506149,31.4133944 L32.8685805,31.4133944 L32.8685805,37.5903429 Z" id="Renters-Insurance"></path>
                </g>
            </g>
        </g>
    </g>
</svg>