<?xml version="1.0" encoding="UTF-8"?>
<svg width="60px" height="60px" viewBox="0 0 60 60" version="1.1" xmlns="http://www.w3.org/2000/svg" xmlns:xlink="http://www.w3.org/1999/xlink">
    <!-- Generator: Sketch 45.1 (43504) - http://www.bohemiancoding.com/sketch -->
    <title>Asset Optimization</title>
    <desc>Created with Sketch.</desc>
    <defs>
        <linearGradient x1="50%" y1="100%" x2="50%" y2="0%" id="linearGradient-1">
            <stop stop-color="#0076CC" offset="0%"></stop>
            <stop stop-color="#178DE3" offset="100%"></stop>
        </linearGradient>
    </defs>
    <g id="Page-1" stroke="none" stroke-width="1" fill="none" fill-rule="evenodd">
        <g id="Icons" transform="translate(-79.000000, -622.000000)" fill-rule="nonzero" fill="url(#linearGradient-1)">
            <g id="Asset-Optimization" transform="translate(24.000000, 592.000000)">
                <path d="M114.121568,57.87975 C114.976568,58.73775 115.237568,60.02775 114.772568,61.14975 C114.310568,62.27175 113.212568,63.00075 112.000568,63.00075 L109.000568,63.00075 L109.000568,90.00075 L61.0005678,90.00075 L61.0005678,63.00075 L58.0005678,63.00075 C56.7885678,63.00075 55.6905678,62.27175 55.2285678,61.14975 C54.7635678,60.02775 55.0215678,58.73775 55.8795678,57.87975 L82.8795678,30.87975 C84.0525678,29.70675 85.9485678,29.70675 87.1215678,30.87975 L114.121568,57.87975 Z M72.5,77.5 L72.5,80 L97.5,80 L97.5,77.5 L72.5,77.5 Z M82.5,64.8476826 L82.5,76.25 L87.5,76.25 L87.5,64.8476826 L82.5,64.8476826 Z M90,55 L90,76.25 L95,76.25 L95,55 L90,55 Z M75,61.0469102 L75,76.25 L80,76.25 L80,61.0469102 L75,61.0469102 Z"></path>
            </g>
        </g>
    </g>
</svg>