<?xml version="1.0" encoding="UTF-8"?>
<svg width="60px" height="60px" viewBox="0 0 60 60" version="1.1" xmlns="http://www.w3.org/2000/svg" xmlns:xlink="http://www.w3.org/1999/xlink">
    <!-- Generator: Sketch 45.1 (43504) - http://www.bohemiancoding.com/sketch -->
    <title>Lease Management</title>
    <desc>Created with Sketch.</desc>
    <defs>
        <linearGradient x1="50%" y1="100%" x2="50%" y2="0%" id="linearGradient-1">
            <stop stop-color="#0076CC" offset="0%"></stop>
            <stop stop-color="#178DE3" offset="100%"></stop>
        </linearGradient>
    </defs>
    <g id="Page-1" stroke="none" stroke-width="1" fill="none" fill-rule="evenodd">
        <g id="Icons" transform="translate(-79.000000, -432.000000)" fill-rule="nonzero" fill="url(#linearGradient-1)">
            <g id="Lease-Management" transform="translate(24.000000, 402.000000)">
                <path d="M114.121568,57.87975 C114.976568,58.73775 115.237568,60.02775 114.772568,61.14975 C114.310568,62.27175 113.212568,63.00075 112.000568,63.00075 L109.000568,63.00075 L109.000568,90.00075 L61.0005678,90.00075 L61.0005678,63.00075 L58.0005678,63.00075 C56.7885678,63.00075 55.6905678,62.27175 55.2285678,61.14975 C54.7635678,60.02775 55.0215678,58.73775 55.8795678,57.87975 L82.8795678,30.87975 C84.0525678,29.70675 85.9485678,29.70675 87.1215678,30.87975 L114.121568,57.87975 Z M93.5019163,64.2758652 L93.5019163,58.9672569 L88.5327109,53.9980516 L76.164959,53.9980516 C74.9697925,53.9980516 73.9978394,54.9710883 73.9978394,56.1651712 L73.9978394,75.6692482 C73.9978394,76.8644147 74.9697925,77.8363678 76.164959,77.8363678 L84.0338626,77.8363678 L85.516747,72.5118194 L93.5019163,64.2758652 Z M78.3320787,63.75009 L89.1568308,63.75009 L89.1568308,65.9172097 L78.3320787,65.9172097 L78.3320787,63.75009 Z M78.3320787,59.4158507 L89.1568308,59.4158507 L89.1568308,61.5829704 L78.3320787,61.5829704 L78.3320787,59.4158507 Z M78.3320787,68.0843294 L84.8334377,68.0843294 L84.8334377,70.251449 L78.3320787,70.251449 L78.3320787,68.0843294 Z M99.6857923,69.4853722 L96.4351128,66.2346927 C96.0114409,65.8110208 95.3266311,65.8110208 94.9029592,66.2346927 L87.3180404,73.8196115 C87.1793447,73.9583072 87.0807408,74.1327603 87.0330641,74.3223833 L85.9495043,78.6566226 C85.8574017,79.0261165 85.9657577,79.4161981 86.2344805,79.6849209 C86.5118718,79.9633958 86.9062876,80.0598326 87.2638624,79.9709807 L91.5981017,78.8874209 C91.7888082,78.8397442 91.9621778,78.7411403 92.1008734,78.6013611 L99.6857923,71.0164423 C100.109464,70.5938539 100.109464,69.9090441 99.6857923,69.4853722 Z M90.7810976,76.8579133 L88.4904521,77.4300329 L89.0625717,75.1393874 L92.4183565,71.7836026 L94.1368824,73.5021285 L90.7810976,76.8579133 Z M95.669036,71.9699749 L93.9505101,70.251449 L95.669036,68.5329231 L97.3875619,70.251449 L95.669036,71.9699749 Z"></path>
            </g>
        </g>
    </g>
</svg>