<?xml version="1.0" encoding="UTF-8"?>
<svg width="60px" height="60px" viewBox="0 0 60 60" version="1.1" xmlns="http://www.w3.org/2000/svg" xmlns:xlink="http://www.w3.org/1999/xlink">
    <!-- Generator: Sketch 45.1 (43504) - http://www.bohemiancoding.com/sketch -->
    <title>Asset &amp; Investment Management</title>
    <desc>Created with Sketch.</desc>
    <defs>
        <linearGradient x1="50%" y1="100%" x2="50%" y2="0%" id="linearGradient-1">
            <stop stop-color="#0076CC" offset="0%"></stop>
            <stop stop-color="#178DE3" offset="100%"></stop>
        </linearGradient>
    </defs>
    <g id="Page-1" stroke="none" stroke-width="1" fill="none" fill-rule="evenodd">
        <g id="Icons" transform="translate(-79.000000, -812.000000)" fill-rule="nonzero" fill="url(#linearGradient-1)">
            <g id="Asset-&amp;-Investment-Management" transform="translate(24.000000, 782.000000)">
                <path d="M114.121568,57.87975 C114.976568,58.73775 115.237568,60.02775 114.772568,61.14975 C114.310568,62.27175 113.212568,63.00075 112.000568,63.00075 L109.000568,63.00075 L109.000568,90.00075 L61.0005678,90.00075 L61.0005678,63.00075 L58.0005678,63.00075 C56.7885678,63.00075 55.6905678,62.27175 55.2285678,61.14975 C54.7635678,60.02775 55.0215678,58.73775 55.8795678,57.87975 L82.8795678,30.87975 C84.0525678,29.70675 85.9485678,29.70675 87.1215678,30.87975 L114.121568,57.87975 Z M88.2977778,69.1736267 L90.4128823,71.2875823 C90.9298823,70.6821178 91.3768001,70.0169111 91.7444445,69.3011534 L91.7444445,66.8758489 L92.629089,66.8758489 C92.7968268,66.1359644 92.8933334,65.3685066 92.8933334,64.5780711 C92.8933334,58.8669443 88.26446,54.2380709 82.5533333,54.2380709 C76.8422065,54.2380709 72.2133331,58.8669443 72.2133331,64.5780711 C72.2133331,70.2891978 76.8422065,74.9180712 82.5533333,74.9180712 L88.2977778,69.1736267 Z M79.1066666,69.1736267 L79.1066666,66.8758489 L83.1277777,66.8758489 C83.4448711,66.8758489 83.7022222,66.6184978 83.7022222,66.3014044 C83.7022222,65.98546 83.4448711,65.72696 83.1277777,65.72696 L81.9788888,65.72696 C80.3957199,65.72696 79.1066666,64.4379066 79.1066666,62.8547377 C79.1066666,61.4680288 80.094711,60.307651 81.4044444,60.0411088 L81.4044444,58.8336265 L83.7022222,58.8336265 L83.7022222,59.9825154 L86,59.9825154 L86,62.2802933 L81.9788888,62.2802933 C81.6629444,62.2802933 81.4044444,62.5387933 81.4044444,62.8547377 C81.4044444,63.171831 81.6629444,63.4291822 81.9788888,63.4291822 L83.1277777,63.4291822 C84.7120955,63.4291822 86,64.7182355 86,66.3014044 C86,67.6881133 85.0119555,68.8484911 83.7022222,69.1150334 L83.7022222,70.3225156 L81.4044444,70.3225156 L81.4044444,69.1736267 L79.1066666,69.1736267 Z M92.8933334,69.1736267 L92.8933334,71.4714045 L95.8643601,71.4714045 L91.7444445,75.5913201 L89.1100423,72.9580667 C88.6608267,72.5088512 87.9347289,72.5088512 87.4855134,72.9580667 L80.5921799,79.8514002 L82.2167088,81.4759291 L88.2977778,75.3937112 L90.9321801,78.0281135 C91.3813956,78.477329 92.1074934,78.477329 92.556709,78.0281135 L97.488889,73.0959334 L97.488889,76.0669601 L99.7866669,76.0669601 L99.7866669,69.1736267 L92.8933334,69.1736267 Z"></path>
            </g>
        </g>
    </g>
</svg>