<?xml version="1.0" encoding="UTF-8"?>
<svg width="61px" height="61px" viewBox="0 0 61 61" version="1.1" xmlns="http://www.w3.org/2000/svg" xmlns:xlink="http://www.w3.org/1999/xlink">
    <!-- Generator: Sketch 46.2 (44496) - http://www.bohemiancoding.com/sketch -->
    <title>Data Analytics</title>
    <desc>Created with Sketch.</desc>
    <defs>
        <linearGradient x1="50%" y1="100%" x2="50%" y2="0%" id="linearGradient-1">
            <stop stop-color="#0076CC" offset="0%"></stop>
            <stop stop-color="#178DE3" offset="100%"></stop>
        </linearGradient>
    </defs>
    <g id="Page-1" stroke="none" stroke-width="1" fill="none" fill-rule="evenodd">
        <g id="Icons" transform="translate(-614.000000, -623.000000)" fill-rule="nonzero" fill="url(#linearGradient-1)">
            <g id="Asset-Optimization" transform="translate(24.000000, 592.000000)">
                <g id="Data-Analytics" transform="translate(590.000000, 31.000000)">
                    <path d="M23.6236246,26.186194 C6.2391538,26.186194 0.5605,20.4691017 0.5605,18.4984858 L0.5605,13.2913448 C5.19618805,16.3382398 12.9223348,18.4984858 23.6236246,18.4984858 C34.3249145,18.4984858 42.0510612,16.3382398 46.6867493,13.2913448 L46.6867493,18.4984858 C46.6867493,19.6055158 44.8929507,21.8964528 40.2341995,23.692814 C37.9688881,23.8568184 35.8265801,24.4462094 33.8687771,25.3764221 C31.0268876,25.870998 27.6494212,26.186194 23.6236246,26.186194 Z M23.6236246,31.3113328 C24.7485926,31.3113328 25.8428097,31.2857071 26.906276,31.2395809 C25.3123579,33.494642 24.2386413,36.136651 23.8286302,38.9939159 C23.7594408,38.9939159 23.692814,38.999041 23.6236246,38.999041 C6.2391538,38.999041 0.5605,33.2819487 0.5605,31.3113328 L0.5605,26.1041918 C5.19618805,29.1510868 12.9223348,31.3113328 23.6236246,31.3113328 Z M23.8260676,44.1190547 C24.2232659,46.9071302 25.2508562,49.4927627 26.7781476,51.7119479 C25.7300567,51.7708869 24.6768407,51.8118881 23.6236246,51.8118881 C12.1612517,51.8118881 0.5605,48.2909177 0.5605,41.5616104 L0.5605,38.9170388 C5.19618805,41.9639338 12.9223348,44.1241798 23.6236246,44.1241798 C23.692814,44.1241798 23.7594408,44.1190547 23.8260676,44.1190547 Z M23.6236246,13.373347 C10.3110766,13.373347 3.87902738,10.0240688 1.58552776,7.56912732 C4.65036077,2.95906496 14.1728687,0.5605 23.6236246,0.5605 C33.0743806,0.5605 42.5968885,2.95906496 45.6617215,7.56912732 C43.3682219,10.0240688 36.9361727,13.373347 23.6236246,13.373347 Z M60.5605,56.9370269 L56.9370269,60.5605 L48.616364,52.2398371 C46.5919342,53.5826235 44.1703061,54.3744575 41.5616104,54.3744575 C34.4966066,54.3744575 28.7487634,48.6266143 28.7487634,41.5616104 C28.7487634,34.4966066 34.4966066,28.7487634 41.5616104,28.7487634 C48.6266143,28.7487634 54.3744575,34.4966066 54.3744575,41.5616104 C54.3744575,44.1703061 53.5826235,46.5919342 52.2398371,48.616364 L60.5605,56.9370269 Z M33.8739022,41.5616104 C33.8739022,45.8001002 37.3231207,49.2493187 41.5616104,49.2493187 C45.8001002,49.2493187 49.2493187,45.8001002 49.2493187,41.5616104 C49.2493187,37.3231207 45.8001002,33.8739022 41.5616104,33.8739022 C37.3231207,33.8739022 33.8739022,37.3231207 33.8739022,41.5616104 Z"></path>
                </g>
            </g>
        </g>
    </g>
</svg>