<?xml version="1.0" encoding="UTF-8"?>
<svg width="55px" height="55px" viewBox="0 0 55 55" version="1.1" xmlns="http://www.w3.org/2000/svg" xmlns:xlink="http://www.w3.org/1999/xlink">
    <!-- Generator: Sketch 46.2 (44496) - http://www.bohemiancoding.com/sketch -->
    <title>OneSite Screening</title>
    <desc>Created with Sketch.</desc>
    <defs>
        <linearGradient x1="50%" y1="100%" x2="50%" y2="0%" id="linearGradient-1">
            <stop stop-color="#0076CC" offset="0%"></stop>
            <stop stop-color="#178DE3" offset="100%"></stop>
        </linearGradient>
    </defs>
    <g id="Page-1" stroke="none" stroke-width="1" fill="none" fill-rule="evenodd">
        <g id="Icons" transform="translate(-1248.000000, -52.000000)" fill-rule="nonzero" fill="url(#linearGradient-1)">
            <g id="Property-Management" transform="translate(24.000000, 22.000000)">
                <g id="OneSite-Screening" transform="translate(1222.000000, 30.000000)">
                    <path d="M55.535,46.465 C56.4775,47.41 57,48.6625 57,50 C57,51.3375 56.4775,52.59 55.5325,53.535 C54.59,54.48 53.3325,55 52,55 C50.6625,55 49.4075,54.4775 48.4625,53.5325 L38.5675,43.6375 C34.7675,46.1 30.345,47.43 25.715,47.43 C19.38,47.43 13.425,44.965 8.9475,40.485 C4.465,36.0075 2,30.05 2,23.715 C2,17.3825 4.465,11.425 8.9475,6.9475 C13.425,2.4675 19.38,0 25.715,0 C32.0475,0 38.005,2.4675 42.485,6.9475 C46.965,11.4275 49.4325,17.3825 49.4325,23.715 C49.4325,28.3475 48.0975,32.77 45.6375,36.5675 L55.535,46.465 Z M26.3913867,22 C29.5867853,22 32.1854004,19.454229 32.1854004,16.3269727 C32.1854004,13.1997163 29.5867853,10.6539453 26.3913867,10.6539453 C23.1959882,10.6539453 20.597373,13.1997163 20.597373,16.3269727 C20.597373,19.454229 23.1974367,22 26.3913867,22 Z M25.5,23.7455469 C18.9399509,23.7455469 14.357666,27.1290401 14.357666,31.9745536 L14.357666,33.3460547 L36.642334,33.3460547 L36.642334,31.9745536 C36.642334,27.1290401 32.0614419,23.7455469 25.5,23.7455469 Z"></path>
                </g>
            </g>
        </g>
    </g>
</svg>