<?xml version="1.0" encoding="UTF-8"?>
<svg width="60px" height="60px" viewBox="0 0 60 60" version="1.1" xmlns="http://www.w3.org/2000/svg" xmlns:xlink="http://www.w3.org/1999/xlink">
    <!-- Generator: Sketch 45.1 (43504) - http://www.bohemiancoding.com/sketch -->
    <title>Webistes &amp; Syndication</title>
    <desc>Created with Sketch.</desc>
    <defs>
        <linearGradient x1="50%" y1="100%" x2="50%" y2="0%" id="linearGradient-1">
            <stop stop-color="#0076CC" offset="0%"></stop>
            <stop stop-color="#178DE3" offset="100%"></stop>
        </linearGradient>
    </defs>
    <g id="Page-1" stroke="none" stroke-width="1" fill="none" fill-rule="evenodd">
        <g id="Icons" transform="translate(-365.000000, -432.000000)" fill-rule="nonzero" fill="url(#linearGradient-1)">
            <g id="Lease-Management" transform="translate(24.000000, 402.000000)">
                <g id="Websites-&amp;-Syndication" transform="translate(334.000090, 30.000000)">
                    <path d="M57.6657685,28.9044645 L60,19 L57.0097924,19 L56.000713,24.9063544 L54.4269195,19 L52.2513814,19 L50.6590727,25.0452185 L49.6685086,19 L46.678301,19 L48.3879617,26.2543253 L52.1505804,27.3290905 L53.3437793,23.0733479 L54.7362791,28.0676768 L57.6657685,28.9044645 Z M49.3029095,51 L53.8749095,54.657 C54.8709095,55.452 55.2519095,56.79 54.8319095,57.993 C54.4089095,59.196 53.2749095,60 51.9999095,60 L21.9999095,60 C20.7249095,60 19.5909095,59.196 19.1679095,57.993 C18.7449095,56.79 19.1289095,55.455 20.1249095,54.657 L24.6969095,51 L49.3029095,51 Z M60.9999095,0 C64.3089095,0 66.9999095,2.691 66.9999095,6 L66.9999095,42 C66.9999095,45.309 64.3089095,48 60.9999095,48 L12.9999095,48 C9.69090953,48 6.99990953,45.309 6.99990953,42 L6.99990953,6 C6.99990953,2.691 9.69090953,0 12.9999095,0 L60.9999095,0 Z M23.3224121,24.9063544 L21.7486186,19 L19.5730805,19 L17.9807718,25.0452185 L16.9902076,19 L14,19 L16.3606902,29.0167327 L18.9991087,29.0167327 L20.6654783,23.0733479 L22.3225903,29.0167327 L24.9610088,29.0167327 L27.321699,19 L24.3314914,19 L23.3224121,24.9063544 Z M39.6615625,24.9063544 L38.087769,19 L35.912231,19 L34.3199223,25.0452185 L33.3293581,19 L30.3391505,19 L32.6998407,29.0167327 L35.3382592,29.0167327 L37.0046288,23.0733479 L38.6617408,29.0167327 L41.3001593,29.0167327 L43.6608495,19 L40.6706419,19 L39.6615625,24.9063544 Z M58.06,38.4153131 L53.5778989,33.9324649 L56.5208888,30.9887279 L46.0609095,28.0009095 L49.049475,38.4601416 L51.9924649,35.5171518 L56.4760603,40 L58.06,38.4153131 Z" id="Webistes-&amp;-Syndication"></path>
                </g>
            </g>
        </g>
    </g>
</svg>