<?xml version="1.0" encoding="UTF-8"?>
<svg width="60px" height="60px" viewBox="0 0 60 60" version="1.1" xmlns="http://www.w3.org/2000/svg" xmlns:xlink="http://www.w3.org/1999/xlink">
    <!-- Generator: Sketch 45.1 (43504) - http://www.bohemiancoding.com/sketch -->
    <title>Resident Portals</title>
    <desc>Created with Sketch.</desc>
    <defs>
        <linearGradient x1="50%" y1="100%" x2="50%" y2="0%" id="linearGradient-1">
            <stop stop-color="#0076CC" offset="0%"></stop>
            <stop stop-color="#178DE3" offset="100%"></stop>
        </linearGradient>
    </defs>
    <g id="Page-1" stroke="none" stroke-width="1" fill="none" fill-rule="evenodd">
        <g id="Icons" transform="translate(-249.000000, -242.000000)" fill-rule="nonzero" fill="url(#linearGradient-1)">
            <g id="Resident-Services" transform="translate(24.000000, 212.000000)">
                <g id="Resident-Portals" transform="translate(225.000000, 30.000000)">
                    <path d="M42.303,51 L46.875,54.657 C47.871,55.452 48.252,56.79 47.832,57.993 C47.409,59.196 46.275,60 45,60 L15,60 C13.725,60 12.591,59.196 12.168,57.993 C11.745,56.79 12.129,55.455 13.125,54.657 L17.697,51 L42.303,51 Z M54,0 C57.309,0 60,2.691 60,6 L60,42 C60,45.309 57.309,48 54,48 L6,48 C2.691,48 0,45.309 0,42 L0,6 C0,2.691 2.691,0 6,0 L54,0 Z M29.999397,11.941651 C26.6875629,11.941651 23.9996975,14.6295164 23.9996975,17.9413505 C23.9996975,21.2531847 26.6875629,23.9410501 29.999397,23.9410501 C33.3112312,23.9410501 35.9990966,21.2531847 35.9990966,17.9413505 C35.9990966,14.6295164 33.3112312,11.941651 29.999397,11.941651 Z M20.9998477,35.9404493 L38.9989464,35.9404493 C38.9989464,30.4177258 35.5221205,26.9408999 29.999397,26.9408999 C24.4766736,26.9408999 20.9998477,30.4177258 20.9998477,35.9404493 Z"></path>
                </g>
            </g>
        </g>
    </g>
</svg>