<?xml version="1.0" encoding="UTF-8"?>
<svg width="60px" height="60px" viewBox="0 0 60 60" version="1.1" xmlns="http://www.w3.org/2000/svg" xmlns:xlink="http://www.w3.org/1999/xlink">
    <!-- Generator: Sketch 47 (45396) - http://www.bohemiancoding.com/sketch -->
    <title>On-Site</title>
    <desc>Created with Sketch.</desc>
    <defs>
        <linearGradient x1="50%" y1="100%" x2="50%" y2="0%" id="linearGradient-1">
            <stop stop-color="#0076CC" offset="0%"></stop>
            <stop stop-color="#178DE3" offset="100%"></stop>
        </linearGradient>
    </defs>
    <g id="Page-1" stroke="none" stroke-width="1" fill="none" fill-rule="evenodd">
        <g id="Icons" transform="translate(-1356.000000, -50.000000)" fill="url(#linearGradient-1)">
            <g id="Property-Management" transform="translate(24.000000, 22.000000)">
                <g id="On-Site" transform="translate(1332.000000, 28.000000)">
                    <path d="M54.1771527,16.4468035 C54.1771805,16.3864384 54.1772,16.3260644 54.1772111,16.2656812 C54.1773517,15.8024994 54.1372887,15.2532123 53.5038163,15.2140587 C49.7157807,14.9799496 45.9301362,14.6909281 42.1418193,14.4612055 C41.8468833,14.4433346 41.4712162,14.6569733 41.2460409,14.901805 C39.5916147,16.7012443 37.9550505,18.5227787 36.339724,20.3690074 C35.9476012,20.8172426 35.5398666,21.0180468 35.0193335,20.8723176 C34.2592791,20.6596536 33.576721,20.819842 32.9917717,21.4129942 C32.360831,22.0527732 31.8789756,21.8379972 31.331157,21.2108903 C29.8673069,19.5347603 28.3512769,17.9198788 26.8688615,16.2651939 C25.8465012,15.1242167 24.8456598,13.9575704 23.8351138,12.802459 L23.4131739,12.802459 C22.2467914,13.8306869 21.0913794,14.8762983 19.9117761,15.8842183 C15.2221957,19.8918538 10.5300836,23.8960776 5.82517263,27.8799935 C5.16737462,28.436957 5.17785063,29.0755354 5.22320518,29.7343909 C5.22117132,30.1057832 5.30965695,30.4907876 5.33335588,30.8607863 C5.37970157,31.582034 5.93669758,31.105609 6.23653156,31.2567462 C6.27750793,31.2774745 6.31452796,31.3083222 6.42417507,31.3822586 L6.42417507,32.2172673 C6.42417507,35.15465 6.43618538,38.0920328 6.41357773,41.0292523 C6.4091975,41.5890802 6.53481126,41.8035449 7.03613593,41.9457053 C8.66120218,42.4061351 9.98968429,43.4557717 11.0643955,44.9348272 C11.191281,45.1094674 11.321275,45.2810065 11.5566771,45.5976439 L11.5566771,44.524994 C11.5566771,39.2216447 11.5640246,33.9179689 11.5470689,28.6144564 C11.545232,27.9937493 11.6784759,27.5762449 12.1296398,27.1768575 C15.7546354,23.9690273 19.3551865,20.7244737 22.9656284,17.4947726 C23.1802598,17.3028316 23.4165098,17.1432072 23.6431515,16.9680774 C23.8046549,17.1352097 23.9126064,17.2386881 24.012504,17.3514697 C26.8056793,20.5075607 29.6093107,23.6517371 32.3730961,26.8417768 C32.6452357,27.1558028 32.7914789,27.7521909 32.7945875,28.2193126 C32.8255317,32.7611001 32.8215754,37.303214 32.8044783,41.8451647 C32.8020763,42.4921495 32.9494499,42.7697785 33.5550524,42.7692888 C34.1713935,42.7689624 34.4158387,42.6028094 34.4118823,41.8103999 C34.3823511,35.9357976 34.4049588,30.0610321 34.3839054,24.1864298 C34.3815033,23.4819933 34.5288769,23.2038747 35.1754558,23.2748733 C36.205093,23.3878182 37.2419364,23.4108315 38.2751061,23.4805244 C39.2788858,23.5480955 40.2818177,23.6264387 41.3419753,23.7042923 L41.3419753,24.7637218 C41.341834,29.768061 41.3493228,34.7724002 41.3329322,39.7767394 C41.3308128,40.4392296 41.3797018,40.830293 42.1073856,40.8196841 C42.799321,40.8095647 42.8593726,40.4406985 42.8489166,39.8093824 C42.81119,37.5264923 42.7938104,35.2431126 42.7857564,32.9597329 C42.7683768,27.9829771 42.7723331,23.0062212 42.7382804,18.0296286 C42.7330524,17.257621 42.9058596,16.9772174 43.6164463,17.0332002 C46.2683238,17.2419524 48.9238751,17.3898253 51.5785786,17.5522243 C52.5933795,17.6142461 52.5947925,17.6041267 52.5949338,18.800004 C52.5952164,26.6056045 52.6001618,34.4113683 52.5851843,42.217132 C52.5841952,42.8433885 52.7237974,43.0950662 53.2977492,43.0540992 C53.8040193,43.0178655 54.2168915,43.0620968 54.1906101,42.2215388 C54.1438405,40.7276307 54.1774694,39.2304583 54.1774694,37.7345916 C54.1774694,30.7719972 54.1770455,23.8092397 54.1783172,16.8466453 C54.1783596,16.7070119 54.1850308,16.5705236 54.1771527,16.4468035 Z M8,0 L52,0 C56.418278,-4.73584367e-15 60,3.581722 60,8 L60,52 L60,52 C60,56.418278 56.418278,60 52,60 L8,60 C3.581722,60 5.41083001e-16,56.418278 0,52 L0,8 L0,8 C-5.41083001e-16,3.581722 3.581722,4.36433818e-15 8,3.55271368e-15 L8,0 Z M28.0014468,43.5666274 C28.0014468,39.9334585 27.9796607,36.4605669 28.0196615,32.9883282 C28.0276973,32.2873192 27.7441206,32.1170858 27.0528577,32.1028861 C24.5590612,32.0514733 22.0663361,31.9584407 19.5730753,31.8869525 C19.0866377,31.8730792 18.5991286,31.8849939 18.1116195,31.8849939 C18.1116195,35.6325766 18.1212625,39.2978988 18.1014407,42.9628946 C18.0982264,43.5173364 18.4041249,43.5716871 18.8784195,43.5700549 C21.4045381,43.5612413 23.9306566,43.566301 26.4565966,43.5666274 L28.0014468,43.5666274 Z M51.0322082,31.2820609 L51.0322082,24.9034502 L45.0808852,24.9034502 L45.0808852,30.938493 C47.0815211,31.0540493 49.0213989,31.1660149 51.0322082,31.2820609 Z M27.7190309,30.1658489 C27.7309954,28.5291275 26.8468717,27.4819392 25.5273828,26.7595491 C23.652705,25.7332523 21.6871326,25.6909796 19.7949545,26.7432275 C18.5960035,27.4099614 17.9393841,28.4166723 17.8979548,29.8172214 C21.2094451,29.9347363 24.4255766,30.0488236 27.7190309,30.1658489 Z M50.99605,22.8395786 C50.7746364,20.9581977 49.3681578,19.5992685 47.7648515,19.692954 C46.3079296,19.7779891 45.0991268,21.1377344 45.0746822,22.8395786 L50.99605,22.8395786 Z M36.4084488,34.8356134 L39.7244261,34.8356134 L39.7244261,31.3671286 L36.4084488,31.3671286 L36.4084488,34.8356134 Z M36.4542293,29.347831 L39.7456208,29.347831 L39.7456208,26.0130194 L36.4542293,26.0130194 L36.4542293,29.347831 Z"></path>
                </g>
            </g>
        </g>
    </g>
</svg>