<?xml version="1.0" encoding="utf-8"?>
<!-- Generator: Adobe Illustrator 20.0.0, SVG Export Plug-In . SVG Version: 6.00 Build 0)  -->
<svg version="1.1" id="Layer_1" xmlns="http://www.w3.org/2000/svg" xmlns:xlink="http://www.w3.org/1999/xlink" x="0px" y="0px"
	 viewBox="0 0 100 100" style="enable-background:new 0 0 100 100;" xml:space="preserve">
<style type="text/css">
	.st0{fill:#25747F;}
	.st1{fill:#00B3CC;}
	.st2{fill:#9BEBF9;}
	.st3{fill:none;stroke:#9BEBF9;stroke-miterlimit:10;}
</style>
<path class="st1" d="M92.9,2.5c-3.7,0-6.6,3-6.6,6.6v2.7h13.3V9.1C99.6,5.5,96.6,2.5,92.9,2.5z"/>
<path class="st2" d="M16.2,2.5c-3.7,0-6.6,3-6.6,6.6v75.8H73v5.9c0,3.7,3,6.6,6.6,6.6c3.7,0,6.6-3,6.6-6.6V9.1c0-3.7,3-6.6,6.6-6.6
	H16.2z M67.6,46.8l-3.1-3.1v21.2H52.1V52.3h-8.4v12.6H31.4V43.6l-3.1,3.1L26,44.5l19.7-19.7l1.5-1.5c0.4-0.4,1.1-0.4,1.5,0l1.5,1.5
	l19.7,19.7L67.6,46.8z"/>
<path class="st0" d="M52.1,52.3v12.6h12.3V43.6l3.1,3.1l2.3-2.3L50.2,24.8l-1.5-1.5c-0.4-0.4-1.1-0.4-1.5,0l-1.5,1.5L26,44.5
	l2.3,2.3l3.1-3.1v21.2h12.3l0-12.6H52.1z"/>
<path class="st1" d="M79.7,97.5H7.1c-3.7,0-6.6-3-6.6-6.6v-5.9H73v5.9C73,94.5,76,97.5,79.7,97.5z"/>
</svg>
