<?xml version="1.0" encoding="UTF-8"?>
<svg width="60px" height="60px" viewBox="0 0 60 60" version="1.1" xmlns="http://www.w3.org/2000/svg" xmlns:xlink="http://www.w3.org/1999/xlink">
    <!-- Generator: Sketch 45.1 (43504) - http://www.bohemiancoding.com/sketch -->
    <title>Lead2Lease</title>
    <desc>Created with Sketch.</desc>
    <defs>
        <linearGradient x1="50%" y1="100%" x2="50%" y2="0%" id="linearGradient-1">
            <stop stop-color="#0076CC" offset="0%"></stop>
            <stop stop-color="#178DE3" offset="100%"></stop>
        </linearGradient>
    </defs>
    <g id="Page-1" stroke="none" stroke-width="1" fill="none" fill-rule="evenodd">
        <g id="Icons" transform="translate(-248.000000, -432.000000)" fill="url(#linearGradient-1)">
            <g id="Lease-Management" transform="translate(24.000000, 402.000000)">
                <g id="Lead2Lease" transform="translate(216.000000, 30.000000)">
                    <path d="M16,0 L60,0 C64.418278,-4.73584367e-15 68,3.581722 68,8 L68,52 L68,52 C68,56.418278 64.418278,60 60,60 L16,60 C11.581722,60 8,56.418278 8,52 L8,8 L8,8 C8,3.581722 11.581722,4.36433818e-15 16,3.55271368e-15 L16,0 Z M35.998337,36.2674461 C36.1249415,36.2024191 36.2117719,36.1573644 36.2990068,36.1130976 C38.1021739,35.1980572 39.8993578,34.2714338 41.6738015,33.301672 C42.6652815,32.7598021 43.6190314,32.1582496 44.5021332,31.449937 C44.9515516,31.0894782 45.3708626,30.6971447 45.7494199,30.2622476 C46.657519,29.2189845 47.1477123,28.0094918 47.2242797,26.6255292 C47.3005916,25.2466342 46.9912558,23.9769266 46.1981783,22.8385078 C45.4840316,21.8133645 44.5245966,21.0913822 43.3772777,20.6169879 C41.9241148,20.016138 40.4137606,19.872606 38.8665919,20.1063325 C37.3004516,20.3429548 35.9561142,21.0281651 34.8421178,22.1561294 C33.9653611,23.0438942 33.3481161,24.0966962 32.8957381,25.252085 C32.7663655,25.5825003 32.651706,25.9180258 32.5553367,26.2595769 C32.5117512,26.413968 32.514072,26.4147346 32.674574,26.4551901 C32.7227161,26.4673055 32.7709434,26.4790802 32.8192771,26.4903438 C33.9450482,26.752517 35.0709045,27.0143708 36.1966117,27.2768633 C36.5201921,27.3523235 36.5181693,27.3527068 36.6031898,27.029531 C36.7999315,26.2815933 37.0846533,25.5726419 37.5791903,24.967853 C38.3851071,23.9822922 39.4227703,23.5933016 40.6676936,23.8659719 C41.6410538,24.0791726 42.2919834,24.6741671 42.5400184,25.6625171 C42.6419876,26.0688397 42.6252305,26.479144 42.5419773,26.887021 C42.4178427,27.4950464 42.1038439,28.0050204 41.7120852,28.4731974 C41.374026,28.8772204 40.9927858,29.2381051 40.5923825,29.5790175 C39.4930352,30.514967 38.302663,31.3263134 37.1001328,32.1202852 C35.258171,33.3364212 33.3766053,34.4896169 31.4900572,35.6346576 C31.3636656,35.7113954 31.2984045,35.7973528 31.2794755,35.9484222 C31.1235514,37.1940908 30.9627513,38.4391631 30.7952866,39.6833412 C30.7437165,40.0663486 30.7641146,39.9946359 31.060462,39.9947423 C35.6879578,39.9962967 40.3154537,39.9958283 44.9429495,39.9958283 C45.2514336,39.9958283 45.2471751,39.9951469 45.2890785,39.6969896 C45.435123,38.6575166 45.5832967,37.6183203 45.7331738,36.5793796 C45.7738423,36.2975322 45.7779304,36.297809 45.4979994,36.2977877 C42.4319382,36.2977239 39.3658771,36.2978729 36.2997946,36.2969999 C36.2162007,36.2969786 36.1310098,36.3110742 35.998337,36.2674461 Z M53.9928997,39.9958389 C55.9229907,39.9958389 57.853103,39.996286 59.7832153,39.9954131 C60.1159089,39.9952853 60.0457931,40.019367 60.0975548,39.7311532 C60.2881004,38.6704304 60.4712575,37.6083448 60.6501988,36.5455992 C60.6970207,36.2675206 60.7448434,36.2785926 60.4328674,36.2785288 C58.0770351,36.2781029 55.7211602,36.2782946 53.3652853,36.2782733 C53.3085198,36.2782733 53.2517117,36.2796999 53.19501,36.2777622 C53.0395117,36.272503 53.0313568,36.265434 53.0553107,36.1216039 C53.2695973,34.8346494 53.4852679,33.5479079 53.6999164,32.260996 C53.9344095,30.8552087 54.1680721,29.4492724 54.4023949,28.0434425 C54.6367389,26.6376339 54.8714449,25.2318679 55.1060444,23.8261019 C55.2811104,22.7770047 55.457092,21.7280566 55.6307314,20.6787464 C55.6639262,20.4780444 55.6563674,20.4695274 55.4591786,20.4693784 C54.0967639,20.4682499 52.7343492,20.4683989 51.3719133,20.4691867 C51.1865204,20.4692932 51.1829859,20.471465 51.1496846,20.6663543 C51.0481625,21.2604119 50.9498556,21.8550444 50.8498239,22.4493788 C50.6156503,23.8407511 50.3805823,25.2319957 50.1469835,26.6234745 C49.8981181,28.1059144 49.6510625,29.5886523 49.4022184,31.0710922 C49.1534168,32.5535321 48.9030397,34.0356952 48.65394,35.5180712 C48.4188934,36.9165552 48.185763,38.3153585 47.949162,39.7135657 C47.8905654,40.0599077 47.9308293,39.994753 48.1813129,39.9949446 C50.1184943,39.9965416 52.0557183,39.9958389 53.9928997,39.9958389 Z M22.060121,39.9958389 C24.0113128,39.9958176 25.9625258,39.9959667 27.9137176,39.995626 C28.1268118,39.9955834 28.1282171,39.9945827 28.1618804,39.8002045 C28.3493599,38.7174014 28.5367967,37.6345983 28.7225302,36.5515185 C28.7692457,36.2791675 28.76635,36.2783584 28.4919124,36.2783371 C26.1362717,36.278252 23.780631,36.2782946 21.4249691,36.2782733 C21.3682036,36.2782733 21.3113529,36.280147 21.2546938,36.2775706 C21.113504,36.271119 21.1095436,36.2696711 21.1317942,36.1289923 C21.1905186,35.757866 21.2523943,35.3872294 21.3141422,35.0165716 C21.5482946,33.6109546 21.7830218,32.2054228 22.0172807,30.7998059 C22.2515395,29.394189 22.4852874,27.9884868 22.7196101,26.5828699 C22.9399224,25.2611875 23.1610651,23.9396329 23.381122,22.617908 C23.4905648,21.9605481 23.5991773,21.3030179 23.7063845,20.6452748 C23.7342988,20.4739349 23.7312327,20.4731684 23.552036,20.4689525 C23.5023821,20.4678027 23.452707,20.4686757 23.4030318,20.4686757 C22.4238801,20.4686757 21.4447284,20.4686757 20.4655554,20.4686757 C20.1249837,20.4686757 19.7844119,20.4676111 19.4438402,20.4691655 C19.2553387,20.4700172 19.2551896,20.4719761 19.2254655,20.6472124 C19.1152561,21.2972477 19.0041098,21.9471552 18.8952418,22.5974247 C18.5616114,24.590307 18.2299612,26.5834874 17.8954791,28.5761993 C17.5903592,30.3941008 17.2814492,32.2113421 16.9761803,34.0292223 C16.6568157,35.931037 16.3399637,37.8332563 16.0215787,39.7352201 C15.9779931,39.9956473 15.9768646,39.995775 16.2490452,39.995775 C18.1860776,39.9958815 20.1230886,39.9958389 22.060121,39.9958389 Z"></path>
                </g>
            </g>
        </g>
    </g>
</svg>