<?xml version="1.0" encoding="utf-8"?>
<!-- Generator: Adobe Illustrator 20.0.0, SVG Export Plug-In . SVG Version: 6.00 Build 0)  -->
<svg version="1.1" id="Layer_1" xmlns="http://www.w3.org/2000/svg" xmlns:xlink="http://www.w3.org/1999/xlink" x="0px" y="0px"
	 viewBox="0 0 100 100" style="enable-background:new 0 0 100 100;" xml:space="preserve">
<style type="text/css">
	.st0{fill:#25747F;}
	.st1{fill:#00B3CC;}
	.st2{fill:#9BEBF9;}
	.st3{fill:none;stroke:#9BEBF9;stroke-miterlimit:10;}
</style>
<path class="st1" d="M59.9,59.6c-2.4,0-4.3,1.9-4.3,4.3v10.9c0,2.4,1.9,4.3,4.3,4.3h29.5V59.6H59.9z M66.6,74.6
	c-2.9,0-5.2-2.3-5.2-5.2c0-2.9,2.3-5.2,5.2-5.2s5.2,2.3,5.2,5.2C71.8,72.3,69.5,74.6,66.6,74.6z"/>
<path class="st0" d="M11.2,27.1c-4.9,0-9,4-9,9c0,0.5,0.1,1.1,0.1,1.7c0.7,4.2,4.4,7.5,8.8,7.5h2.1l18.2-18.2H11.2z"/>
<path class="st2" d="M59.9,59.6h29.5h0v-3.4c0-6.1-4.9-11-11-11H11.2c-4.9,0-9-4-9-9v52.2c0,6.1,4.9,11,11,11h65.2
	c6.1,0,11-4.9,11-11v-9.3h0H59.9c-2.4,0-4.3-1.9-4.3-4.3V64C55.5,61.6,57.5,59.6,59.9,59.6z"/>
<path class="st0" d="M97.7,31.4L86.1,19.8l-7.7-7.7L66.8,0.5L55.2,12.1L25,42.3L22,45.3h7l30.2-30.2c4.4,2.3,9.6,2.4,14.1,0.5
	l9.3,9.3c-2,4.5-1.8,9.7,0.5,14.1l-6.3,6.3h1.5c1.6,0,3.1,0.4,4.5,1l3.2-3.2c0,0,0,0,0,0L97.7,31.4L97.7,31.4z"/>
<path class="st0" d="M63.5,34.7c-4.4-4.4-11.5-4.4-15.9,0c-2.9,2.9-3.8,6.9-3,10.5h21.9C67.3,41.6,66.3,37.6,63.5,34.7z"/>
<path class="st2" d="M82.6,24.9l-9.3-9.3c-4.5,2-9.7,1.8-14.1-0.5L29,45.3h15.6c-0.9-3.7,0.1-7.7,3-10.5c4.4-4.4,11.5-4.4,15.9,0
	c2.9,2.9,3.8,6.9,3,10.5h10.4l6.3-6.3C80.8,34.6,80.7,29.4,82.6,24.9z"/>
</svg>
