<?xml version="1.0" encoding="UTF-8"?>
<svg width="24px" height="22px" viewBox="0 0 24 22" version="1.1" xmlns="http://www.w3.org/2000/svg" xmlns:xlink="http://www.w3.org/1999/xlink">
    <!-- Generator: Sketch 43.2 (39069) - http://www.bohemiancoding.com/sketch -->
    <title>3 dots</title>
    <desc>Created with Sketch.</desc>
    <defs></defs>
    <g id="Global-Shell" stroke="none" stroke-width="1" fill="none" fill-rule="evenodd">
        <g id="Global-Shell-(Light):-Collapsed-Nav-Copy" transform="translate(-72.000000, -17.000000)" fill="#F65216">
            <g id="Logo_RealPage" transform="translate(72.000000, 8.000000)">
                <g id="3-Dots">
                    <g id="3-dots" transform="translate(0.000000, 9.000000)" fill="#F06000">
                        <path d="M14.7085002,3.37928539 C14.7085002,5.2310687 13.2440285,6.733681 11.4376767,6.733681 C9.63004924,6.733681 8.16557758,5.2310687 8.16557758,3.37928539 C8.16557758,1.52750209 9.63004924,0.0261975451 11.4376767,0.0261975451 C13.2440285,0.0261975451 14.7085002,1.52750209 14.7085002,3.37928539" id="Fill-2"></path>
                        <path d="M6.54305015,17.7071972 C6.54305015,19.5602882 5.07857849,21.0615928 3.27222669,21.0615928 C1.46459922,21.0615928 0.000127567217,19.5602882 0.000127567217,17.7071972 C0.000127567217,15.8554139 1.46459922,14.3541093 3.27222669,14.3541093 C5.07857849,14.3541093 6.54305015,15.8554139 6.54305015,17.7071972" id="Fill-4"></path>
                        <path d="M23.4500437,17.7071972 C23.4500437,19.5602882 21.9855721,21.0615928 20.1792203,21.0615928 C18.3715928,21.0615928 16.9071212,19.5602882 16.9071212,17.7071972 C16.9071212,15.8554139 18.3715928,14.3541093 20.1792203,14.3541093 C21.9855721,14.3541093 23.4500437,15.8554139 23.4500437,17.7071972" id="Fill-6"></path>
                    </g>
                </g>
            </g>
        </g>
    </g>
</svg>
