<?xml version="1.0" encoding="utf-8"?>
<!-- Generator: Adobe Illustrator 20.0.0, SVG Export Plug-In . SVG Version: 6.00 Build 0)  -->
<svg version="1.1" id="Layer_1" xmlns="http://www.w3.org/2000/svg" xmlns:xlink="http://www.w3.org/1999/xlink" x="0px" y="0px"
	 viewBox="0 0 100 100" style="enable-background:new 0 0 100 100;" xml:space="preserve">
<style type="text/css">
	.st0{fill:#25747F;}
	.st1{fill:#00B3CC;}
	.st2{fill:#9BEBF9;}
	.st3{fill:none;stroke:#9BEBF9;stroke-miterlimit:10;}
</style>
<path class="st2" d="M53.5,0v46.5H100V0H53.5z M95.8,25.3h-3.6v3.8c0,1.2-1,2.2-2.2,2.2s-2.2-1-2.2-2.2v4c0,1.2-1,2.2-2.2,2.2
	s-2.2-1-2.2-2.2v-7.9H70.1v7.9c0,1.2-1,2.2-2.2,2.2s-2.2-1-2.2-2.2v-4c0,1.2-1,2.2-2.2,2.2c-1.2,0-2.2-1-2.2-2.2v-3.8h-3.6v-4.4h3.6
	v-3.5c0-1.2,1-2.2,2.2-2.2c1.2,0,2.2,1,2.2,2.2v-4c0-1.2,1-2.2,2.2-2.2s2.2,1,2.2,2.2v7.5h13.3v-7.5c0-1.2,1-2.2,2.2-2.2
	s2.2,1,2.2,2.2v4c0-1.2,1-2.2,2.2-2.2s2.2,1,2.2,2.2v3.5h3.6V25.3z"/>
<path class="st2" d="M53.5,53.5V100H100V53.5H53.5z M91.8,92h-4.4v-6.1h-8.6V92h-4.4V75.5h-8.6V92h-4.4V61.5h4.4v9.6h8.6v-9.6h4.4
	v19.9h8.6V61.5h4.4V92z"/>
<path class="st2" d="M0,53.5V100h46.5V53.5H0z M34.1,81.8C34.1,87.4,29.6,92,24,92h-1.4c-5.6,0-10.2-4.6-10.2-10.2V71.7
	c0-5.6,4.6-10.2,10.2-10.2H24c5.6,0,10.2,4.6,10.2,10.2V81.8z"/>
<path class="st2" d="M0,0v46.5h46.5V0H0z M28.4,38.2c1.2-1.3,2-3,2-4.9c0-6.2-9.1-11.4-9.1-11.4c0,4.7-5.1,5.8-5.1,11.4
	c0,1.9,0.8,3.7,2,4.9c-4-1.9-6.8-6-6.8-10.7c0-9.4,8.5-11.3,8.5-19.1c0,0,15.3,8.7,15.3,19.1C35.1,32.2,32.4,36.3,28.4,38.2z"/>
<path class="st0" d="M19.8,8.3c0,7.8-8.5,9.7-8.5,19.1c0,4.7,2.8,8.8,6.8,10.7c-1.2-1.3-2-3-2-4.9c0-5.6,5.1-6.7,5.1-11.4
	c0,0,9.1,5.2,9.1,11.4c0,1.9-0.8,3.7-2,4.9c4-1.9,6.8-6,6.8-10.7C35.1,17.1,19.8,8.3,19.8,8.3z"/>
<path class="st0" d="M22.5,61.5H24c5.6,0,10.2,4.6,10.2,10.2v10.1C34.1,87.4,29.6,92,24,92h-1.4c-5.6,0-10.2-4.6-10.2-10.2V71.7
	C12.4,66.1,17,61.5,22.5,61.5z"/>
<path class="st0" d="M95.8,20.9h-3.6v-3.5c0-1.2-1-2.2-2.2-2.2s-2.2,1-2.2,2.2v-4c0-1.2-1-2.2-2.2-2.2s-2.2,1-2.2,2.2v7.5H70.1v-7.5
	c0-1.2-1-2.2-2.2-2.2s-2.2,1-2.2,2.2v4c0-1.2-1-2.2-2.2-2.2c-1.2,0-2.2,1-2.2,2.2v3.5h-3.6v4.4h3.6v3.8c0,1.2,1,2.2,2.2,2.2
	c1.2,0,2.2-1,2.2-2.2v4c0,1.2,1,2.2,2.2,2.2s2.2-1,2.2-2.2v-7.9h13.3v7.9c0,1.2,1,2.2,2.2,2.2s2.2-1,2.2-2.2v-4c0,1.2,1,2.2,2.2,2.2
	s2.2-1,2.2-2.2v-3.8h3.6V20.9z"/>
<polygon class="st0" points="87.3,61.5 87.3,81.4 78.7,81.4 78.7,61.5 74.3,61.5 74.3,71.1 65.7,71.1 65.7,61.5 61.3,61.5 61.3,92 
	65.7,92 65.7,75.5 74.3,75.5 74.3,92 78.7,92 78.7,85.9 87.3,85.9 87.3,92 91.8,92 91.8,61.5 "/>
</svg>
