<?xml version="1.0" encoding="utf-8"?>
<!-- Generator: Adobe Illustrator 20.0.0, SVG Export Plug-In . SVG Version: 6.00 Build 0)  -->
<svg version="1.1" id="Layer_1" xmlns="http://www.w3.org/2000/svg" xmlns:xlink="http://www.w3.org/1999/xlink" x="0px" y="0px"
	 viewBox="0 0 100 100" style="enable-background:new 0 0 100 100;" xml:space="preserve">
<style type="text/css">
	.st0{fill:#25747F;}
	.st1{fill:#00B3CC;}
	.st2{fill:#9BEBF9;}
	.st3{fill:none;stroke:#9BEBF9;stroke-miterlimit:10;}
</style>
<circle class="st1" cx="29.8" cy="43.8" r="5"/>
<path class="st2" d="M82.6,24.6c-2.3,6.5-8.5,11.1-15.8,11.1c-9.1,0-16.5-7.2-16.8-16.3h-3.5c-1.2-6.6-6.9-11.5-13.8-11.5V22
	c-9.4,3.8-16.8,11.3-20.2,20.7H2.1c-0.9,0-1.6,0.7-1.6,1.6v17.2c0,0.9,0.7,1.6,1.6,1.6h10C15,72.8,22.3,80.9,31.8,85v12.9h12.1v-10
	c0.8,0.1,1.6,0.1,2.5,0.1h17.5c0.8,0,1.6,0,2.5-0.1v10h12.1V85c12.4-5.4,21.1-17.4,21.1-31.3C99.5,41.4,92.7,30.6,82.6,24.6z
	 M29.8,48.7c-2.7,0-5-2.2-5-5s2.2-5,5-5s5,2.2,5,5S32.5,48.7,29.8,48.7z"/>
<path class="st0" d="M66.8,2.1C57.5,2.1,50,9.6,50,18.9c0,9.3,7.5,16.8,16.8,16.8s16.8-7.5,16.8-16.8C83.6,9.6,76.1,2.1,66.8,2.1z
	 M71.6,26.7c-0.9,0.9-2.1,1.4-3.6,1.5v2.5h-2v-2.4c-1.5-0.2-2.8-0.7-3.8-1.6c-1-0.9-1.5-2.3-1.5-4.1l0-0.1h3.5
	c0,1.1,0.3,1.9,0.8,2.4c0.5,0.5,1.2,0.7,1.9,0.7c0.8,0,1.3-0.2,1.7-0.6c0.4-0.4,0.6-0.9,0.6-1.6c0-0.7-0.2-1.2-0.6-1.6
	c-0.4-0.4-1-0.8-2-1.2c-1.8-0.7-3.2-1.4-4.1-2.2s-1.3-2-1.3-3.5c0-1.4,0.4-2.5,1.3-3.4c0.9-0.9,2.1-1.4,3.6-1.6V7.1h2v2.7
	c1.5,0.2,2.6,0.8,3.4,1.8c0.8,1,1.2,2.3,1.2,3.9l0,0.1h-3.5c0-1-0.2-1.7-0.6-2.3s-0.9-0.8-1.6-0.8c-0.7,0-1.2,0.2-1.6,0.6
	c-0.3,0.4-0.5,1-0.5,1.6c0,0.6,0.2,1.2,0.6,1.6c0.4,0.4,1,0.8,2,1.2c1.8,0.7,3.2,1.5,4.1,2.3c0.9,0.8,1.3,2,1.3,3.4
	C72.9,24.7,72.4,25.8,71.6,26.7z"/>
</svg>
