<?xml version="1.0" encoding="utf-8"?>
<!-- Generator: Adobe Illustrator 20.0.0, SVG Export Plug-In . SVG Version: 6.00 Build 0)  -->
<svg version="1.1" id="Layer_1" xmlns="http://www.w3.org/2000/svg" xmlns:xlink="http://www.w3.org/1999/xlink" x="0px" y="0px"
	 viewBox="0 0 100 100" style="enable-background:new 0 0 100 100;" xml:space="preserve">
<style type="text/css">
	.st0{fill:#25747F;}
	.st1{fill:#00B3CC;}
	.st2{fill:#9BEBF9;}
	.st3{fill:none;stroke:#9BEBF9;stroke-miterlimit:10;}
</style>
<path class="st2" d="M90.1,32.6c-4.1-18.3-20.5-32-40-32c-19.5,0-35.9,13.7-40,32h3.9C18,16.4,32.6,4.4,50,4.4
	c17.4,0,32,12,36.1,28.2H90.1z"/>
<path class="st2" d="M41.2,94.6L41.2,94.6c0-0.7,0.2-1.4,0.5-2.1c-19.2-0.9-28.9-5.4-28.9-21.6l0-3.3H8.9l0,3.3v0
	c0,20.5,14.6,24.7,32.6,25.5C41.3,95.8,41.2,95.3,41.2,94.6z"/>
<path class="st1" d="M69.2,33.6H30.8c-1.1,0-2,0.9-2,2v27.9c0,1.1,0.9,2,2,2h15.8v8.2l6.8-8.2h15.7c1.1,0,2-0.9,2-2V35.6
	C71.1,34.5,70.3,33.6,69.2,33.6z M54.9,41.7c0.9,0,1.6,0.7,1.6,1.6c0,0.9-0.7,1.6-1.6,1.6c-0.9,0-1.6-0.7-1.6-1.6
	C53.3,42.5,54,41.7,54.9,41.7z M45.1,41.7c0.9,0,1.6,0.7,1.6,1.6c0,0.9-0.7,1.6-1.6,1.6c-0.9,0-1.6-0.7-1.6-1.6
	C43.4,42.5,44.2,41.7,45.1,41.7z M50,58.5c-5.4,0-9.8-4.4-9.8-9.8h0.6c1.3,3.8,5,6.6,9.3,6.6s7.9-2.8,9.3-6.6h0.6
	C59.8,54.1,55.4,58.5,50,58.5z"/>
<g>
	<path class="st0" d="M17.1,32.6H7.2c-2.6,0-4.7,2.1-4.7,4.7v25.6c0,2.6,2.1,4.7,4.7,4.7h9.9c1.1,0,2.1-0.9,2.1-2.1V34.7
		C19.2,33.5,18.3,32.6,17.1,32.6z"/>
	<path class="st0" d="M92.8,32.6h-9.9c-1.1,0-2.1,0.9-2.1,2.1v30.9c0,1.1,0.9,2.1,2.1,2.1h9.9c2.6,0,4.7-2.1,4.7-4.7V37.3
		C97.5,34.7,95.4,32.6,92.8,32.6z"/>
</g>
<path class="st0" d="M54,89.8H46c-2.7,0-4.9,2.2-4.9,4.9v0c0,2.7,2.2,4.9,4.9,4.9H54c2.7,0,4.9-2.2,4.9-4.9v0
	C58.8,91.9,56.6,89.8,54,89.8z"/>
</svg>
