<?xml version="1.0" encoding="utf-8"?>
<!-- Generator: Adobe Illustrator 20.0.0, SVG Export Plug-In . SVG Version: 6.00 Build 0)  -->
<svg version="1.1" id="Layer_1" xmlns="http://www.w3.org/2000/svg" xmlns:xlink="http://www.w3.org/1999/xlink" x="0px" y="0px"
	 viewBox="0 0 100 100" style="enable-background:new 0 0 100 100;" xml:space="preserve">
<style type="text/css">
	.st0{fill:#25747F;}
	.st1{fill:#00B3CC;}
	.st2{fill:#9BEBF9;}
	.st3{fill:none;stroke:#9BEBF9;stroke-miterlimit:10;}
</style>
<path class="st0" d="M37.3,25.9v-10c0-1.2,1-2.2,2.2-2.2h21c1.2,0,2.2,1,2.2,2.2v10h7.1V12.1c0-2.5-2-4.5-4.5-4.5H34.7
	c-2.5,0-4.5,2-4.5,4.5v13.7H37.3z"/>
<g>
	<path class="st1" d="M0.6,25.9v24c0,8.2,6.7,14.8,14.8,14.8H32c-0.6-1.8-0.9-3.7-0.9-5.6c0-10.4,8.4-18.9,18.9-18.9
		c10.4,0,18.9,8.4,18.9,18.9c0,2-0.3,3.8-0.9,5.6h16.6c8.2,0,14.8-6.7,14.8-14.8v-24H0.6z"/>
</g>
<g>
	<path class="st2" d="M99.4,25.9v24c0,8.2-6.7,14.8-14.8,14.8H68c-2.4,7.7-9.5,13.2-18,13.2c-8.5,0-15.6-5.6-18-13.2H15.4
		C7.3,64.7,0.6,58,0.6,49.9v-24L0.5,92.3h99V25.9H99.4z"/>
</g>
<path class="st0" d="M50,40.2c-10.4,0-18.9,8.4-18.9,18.9c0,10.4,8.4,18.9,18.9,18.9c10.4,0,18.9-8.4,18.9-18.9
	C68.9,48.7,60.4,40.2,50,40.2z M55.4,67.8c-1,1-2.3,1.5-4,1.7v2.8h-2.2v-2.7c-1.7-0.2-3.2-0.8-4.3-1.8c-1.1-1.1-1.7-2.6-1.6-4.6
	l0-0.1h4c0,1.2,0.3,2.1,0.9,2.7s1.3,0.8,2.2,0.8c0.8,0,1.5-0.2,1.9-0.7c0.4-0.4,0.7-1.1,0.7-1.8c0-0.8-0.2-1.4-0.6-1.8
	s-1.2-0.9-2.2-1.3c-2.1-0.8-3.6-1.6-4.6-2.5c-1-0.9-1.5-2.2-1.5-3.9c0-1.6,0.5-2.8,1.5-3.8c1-1,2.3-1.6,4-1.8v-3h2.2v3
	c1.6,0.2,2.9,0.9,3.8,2s1.4,2.6,1.4,4.4l0,0.1h-4c0-1.1-0.2-1.9-0.7-2.5c-0.4-0.6-1.1-0.9-1.8-0.9c-0.8,0-1.4,0.2-1.8,0.7
	c-0.4,0.5-0.6,1.1-0.6,1.8c0,0.7,0.2,1.3,0.6,1.8c0.4,0.4,1.2,0.9,2.3,1.3c2,0.8,3.6,1.7,4.6,2.6c1,0.9,1.5,2.2,1.5,3.9
	C56.8,65.6,56.3,66.9,55.4,67.8z"/>
</svg>
