<?xml version="1.0" encoding="utf-8"?>
<!-- Generator: Adobe Illustrator 19.2.1, SVG Export Plug-In . SVG Version: 6.00 Build 0)  -->
<svg version="1.1" id="Layer_1" xmlns="http://www.w3.org/2000/svg" xmlns:xlink="http://www.w3.org/1999/xlink" x="0px" y="0px"
	 viewBox="0 0 64 64" style="enable-background:new 0 0 64 64;" xml:space="preserve">
<path d="M5.2,6.6v48.9H60V18.4H30.4V6.6C30.4,6.6,5.2,6.6,5.2,6.6z M17,54H6.6V43.7H17V54z M17,42.2H6.6V31.7H17V42.2z M17,30.4H6.6
	V19.9H17V30.4z M17,18.4H6.6V8.1H17V18.4z M28.9,54H18.6V43.7h10.3C28.9,43.7,28.9,54,28.9,54z M28.9,42.2H18.6V31.7h10.3
	C28.9,31.7,28.9,42.2,28.9,42.2z M28.9,30.4H18.6V19.9h10.3C28.9,19.9,28.9,30.4,28.9,30.4z M28.9,18.4H18.6V8.1h10.3
	C28.9,8.1,28.9,18.4,28.9,18.4z M30.4,43.7h6v-1.5h-6V31.7h6v-1.4h-6V19.9h28.2V54H30.4C30.4,54,30.4,43.7,30.4,43.7z"/>
<rect x="45.9" y="41.4" width="3" height="3"/>
<rect x="45.9" y="29.6" width="3" height="2.9"/>
</svg>
