<?xml version="1.0" encoding="utf-8"?>
<!-- Generator: Adobe Illustrator 20.0.0, SVG Export Plug-In . SVG Version: 6.00 Build 0)  -->
<svg version="1.1" id="Layer_1" xmlns="http://www.w3.org/2000/svg" xmlns:xlink="http://www.w3.org/1999/xlink" x="0px" y="0px"
	 viewBox="0 0 100 100" style="enable-background:new 0 0 100 100;" xml:space="preserve">
<style type="text/css">
	.st0{fill:#25747F;}
	.st1{fill:#00B3CC;}
	.st2{fill:#9BEBF9;}
	.st3{fill:none;stroke:#9BEBF9;stroke-miterlimit:10;}
</style>
<path class="st2" d="M49.5,0.5C34.4,0.8,22.9,13.9,23.6,29c0.8,17,12.7,17,12.7,33.9v4.8c0,2.7,2.2,4.8,4.8,4.8H50h9.6
	c2.7,0,3.5-2.2,3.5-4.8v-4.8c0-17.6,13.4-17,13.4-36C76.4,12.2,64.3,0.2,49.5,0.5z"/>
<path class="st0" d="M61.6,84.6c1.9,0,3.4-1.6,3.4-3.4c0-1.9-1.5-3.4-3.4-3.4H38.4c-1.9,0-3.4,1.5-3.4,3.4c0,1.9,1.5,3.4,3.4,3.4
	c-1.9,0-3.4,1.6-3.4,3.4c0,1.9,1.5,3.4,3.4,3.4H42c0,4.4,3.6,8,8,8s8-3.6,8-8h3.5c1.9,0,3.4-1.5,3.4-3.4
	C65,86.2,63.5,84.7,61.6,84.6z"/>
</svg>
