<?xml version="1.0" encoding="UTF-8"?>
<svg width="55px" height="60px" viewBox="0 0 55 60" version="1.1" xmlns="http://www.w3.org/2000/svg" xmlns:xlink="http://www.w3.org/1999/xlink">
    <!-- Generator: Sketch 46.2 (44496) - http://www.bohemiancoding.com/sketch -->
    <title>Document Management</title>
    <desc>Created with Sketch.</desc>
    <defs>
        <linearGradient x1="50%" y1="100%" x2="50%" y2="0%" id="linearGradient-1">
            <stop stop-color="#0076CC" offset="0%"></stop>
            <stop stop-color="#178DE3" offset="100%"></stop>
        </linearGradient>
    </defs>
    <g id="Page-1" stroke="none" stroke-width="1" fill="none" fill-rule="evenodd">
        <g id="Icons" transform="translate(-997.000000, -52.000000)" fill-rule="nonzero" fill="url(#linearGradient-1)">
            <g id="Property-Management" transform="translate(24.000000, 22.000000)">
                <g id="Document-Management" transform="translate(960.000000, 30.000000)">
                    <path d="M37.9953775,20.2096007 C34.2671294,20.9849388 31.299985,23.8360976 30.3570212,27.5 L18.0261941,27.5 C15.272943,27.5 13.0338983,25.255 13.0338983,22.5 L13.0338983,5 C13.0338983,2.245 15.272943,0 18.0261941,0 L33.0030817,0 C35.7563328,0 37.9953775,2.245 37.9953775,5 L37.9953775,20.2096007 Z M18.0261941,10 L18.0261941,12.5 L28.0107858,12.5 L28.0107858,10 L18.0261941,10 Z M33.0030817,20 L33.0030817,17.5 L18.0261941,17.5 L18.0261941,20 L33.0030817,20 Z M49.726917,27.5 C48.8609718,24.135967 46.2883925,21.4570851 42.9876733,20.4409938 L42.9876733,5 C42.9876733,2.245 45.226718,0 47.9799692,0 L62.9568567,0 C65.7101079,0 67.9491525,2.245 67.9491525,5 L67.9491525,22.5 C67.9491525,25.255 65.7101079,27.5 62.9568567,27.5 L49.726917,27.5 Z M47.9799692,10 L47.9799692,12.5 L57.9645609,12.5 L57.9645609,10 L47.9799692,10 Z M62.9568567,20 L62.9568567,17.5 L47.9799692,17.5 L47.9799692,20 L62.9568567,20 Z M37.9953775,39.7903993 L37.9953775,55 C37.9953775,57.7575 35.7563328,60 33.0030817,60 L18.0261941,60 C15.272943,60 13.0338983,57.7575 13.0338983,55 L13.0338983,37.5 C13.0338983,34.745 15.272943,32.5 18.0261941,32.5 L30.3570212,32.5 C31.299985,36.1639024 34.2671294,39.0150612 37.9953775,39.7903993 Z M18.0261941,42.5 L18.0261941,45 L28.0107858,45 L28.0107858,42.5 L18.0261941,42.5 Z M33.0030817,52.5 L33.0030817,50 L18.0261941,50 L18.0261941,52.5 L33.0030817,52.5 Z M42.9876733,39.5591199 C46.2888074,38.5431147 48.8611589,35.8641584 49.7269788,32.5 L62.9568567,32.5 C65.7101079,32.5 67.9491525,34.745 67.9491525,37.5 L67.9491525,55 C67.9491525,57.7575 65.7101079,60 62.9568567,60 L47.9799692,60 C45.226718,60 42.9876733,57.7575 42.9876733,55 L42.9876733,39.5591199 Z M47.9799692,42.5 L47.9799692,45 L57.9645609,45 L57.9645609,42.5 L47.9799692,42.5 Z M62.9568567,52.5 L62.9568567,50 L47.9799692,50 L47.9799692,52.5 L62.9568567,52.5 Z M39.292,35.75 L34.292,32 L35.792,30 L38.792,32.25 L44.042,25.25 L46.042,26.75 L39.292,35.75 Z"></path>
                </g>
            </g>
        </g>
    </g>
</svg>