<?xml version="1.0" encoding="UTF-8"?>
<svg width="60px" height="60px" viewBox="0 0 60 60" version="1.1" xmlns="http://www.w3.org/2000/svg" xmlns:xlink="http://www.w3.org/1999/xlink">
    <!-- Generator: Sketch 46.2 (44496) - http://www.bohemiancoding.com/sketch -->
    <title>Prospect Contact Center</title>
    <desc>Created with Sketch.</desc>
    <defs>
        <linearGradient x1="50%" y1="100%" x2="50%" y2="0%" id="linearGradient-1">
            <stop stop-color="#0076CC" offset="0%"></stop>
            <stop stop-color="#178DE3" offset="100%"></stop>
        </linearGradient>
    </defs>
    <g id="Page-1" stroke="none" stroke-width="1" fill="none" fill-rule="evenodd">
        <g id="Icons" transform="translate(-494.000000, -432.000000)" fill-rule="nonzero" fill="url(#linearGradient-1)">
            <g id="Lease-Management" transform="translate(24.000000, 402.000000)">
                <g id="Prospect-Centact-Center" transform="translate(453.000000, 30.000000)">
                    <path d="M47,60 C30.4314575,60 17,46.5685425 17,30 C17,13.4314575 30.4314575,0 47,0 C63.5685425,0 77,13.4314575 77,30 C77,46.5685425 63.5685425,60 47,60 Z M34.9314741,31.6313874 C34.9314741,29.2638679 34.9350487,26.8962591 34.9295974,24.5286503 C34.927542,23.6083704 34.3385286,23.0240218 33.4210941,23.0131161 C32.9596958,23.0075738 32.4981188,23.0088253 32.0367205,23.0127585 C28.9263261,23.0397546 26.3894846,25.571217 26.3699134,28.681754 C26.357849,30.6174258 26.3593682,32.5532763 26.369824,34.488948 C26.383229,36.978933 28.0157728,39.2269367 30.4179392,39.8772559 C31.3323353,40.1248689 32.3259099,40.1133374 33.2860616,40.1497196 C34.3815138,40.191197 34.9305804,39.609977 34.931206,38.5108258 C34.9322784,36.2176797 34.9314741,33.9245335 34.9314741,31.6313874 Z M58.5096299,31.5838983 C58.5096299,33.933749 58.50588,36.283689 58.5115048,38.6334504 C58.5137369,39.5524448 59.1023826,40.1341263 60.0209306,40.1448404 C60.481901,40.1501974 60.9430499,40.1492152 61.4040203,40.1451975 C64.5108159,40.1177875 67.0440548,37.5884771 67.0632508,34.4807886 C67.0752147,32.5474451 67.0740541,30.613923 67.06334,28.6804903 C67.0495011,26.1940359 65.4188285,23.9510575 63.0167469,23.3004491 C62.1031988,23.0530447 61.1103671,23.0650979 60.1511058,23.0288489 C59.0589909,22.9875106 58.5104334,23.5696386 58.5098977,24.668182 C58.5088263,26.9734803 58.5096299,29.2786893 58.5096299,31.5838983 Z M30.6572445,19.4073273 C31.550479,19.4073273 32.4712375,19.3816327 33.3895023,19.4192739 C33.7834269,19.4354872 33.9783111,19.2975324 34.181785,18.9620795 C38.0911064,12.5186916 46.0385943,10.0373074 52.7798322,13.1543264 C55.5360119,14.4288198 57.7041215,16.4044647 59.3122393,19.0329058 C59.4063564,19.1866945 59.5782424,19.3934844 59.7190947,19.3976563 C60.745885,19.428945 61.7737836,19.4145332 62.7772986,19.4145332 C60.8793483,14.6322912 55.1983358,8.86047276 46.8330937,8.80870417 C38.3577559,8.7563667 32.5865055,14.5627924 30.6572445,19.4073273 Z M57.7997191,43.4034375 C57.1448787,44.8277762 56.0419895,45.3876726 54.5485239,45.3103531 C53.859128,45.2748183 53.1655818,45.2857109 52.4752836,45.3116924 C52.091925,45.3261563 51.8818852,45.2367836 51.6985516,44.8529541 C50.7424557,42.8506838 48.3750876,41.9399035 46.2911107,42.7283655 C44.2224718,43.5111134 43.0854783,45.7256997 43.6670574,47.8392171 C44.1456918,49.578012 45.6326614,50.814409 47.4567952,50.9901188 C49.2293214,51.1608287 50.9663898,50.1784431 51.7349115,48.5339315 C51.8776447,48.2284036 52.0355354,48.1282276 52.3689104,48.1376916 C53.2547224,48.1629588 54.1418877,48.1500128 55.0285116,48.1452807 C56.4841737,48.1375131 57.76778,47.6631502 58.8605642,46.7128173 C59.7264368,45.9597115 60.3147827,45.0304496 60.6196471,43.8811932 C59.6453261,43.8504797 58.6744336,44.0130648 57.7997191,43.4034375 Z M47.9265611,26.9265611 L45.1559367,26.9265611 C44.3912443,26.9265611 43.7706245,26.3059413 43.7706245,25.5412489 C43.7706245,24.7765566 44.3912443,24.1559367 45.1559367,24.1559367 L50.6971856,24.1559367 L50.6971856,21.3853122 L47.9265611,21.3853122 L47.9265611,20 L45.1559367,20 L45.1559367,21.3853122 C42.8646303,21.3853122 41,23.2499425 41,25.5412489 C41,27.8325553 42.8646303,29.6971856 45.1559367,29.6971856 L47.9265611,29.6971856 C48.6912535,29.6971856 49.3118734,30.3178055 49.3118734,31.0824978 C49.3118734,31.8471902 48.6912535,32.46781 47.9265611,32.46781 L42.3853122,32.46781 L42.3853122,35.2384345 L45.1559367,35.2384345 L45.1559367,36.6237467 L47.9265611,36.6237467 L47.9265611,35.2384345 C50.2178676,35.2384345 52.0824978,33.3738042 52.0824978,31.0824978 C52.0824978,28.7911914 50.2178676,26.9265611 47.9265611,26.9265611 Z" id="Prospect-Contact-Center"></path>
                </g>
            </g>
        </g>
    </g>
</svg>