<?xml version="1.0" encoding="utf-8"?>
<!-- Generator: Adobe Illustrator 20.0.0, SVG Export Plug-In . SVG Version: 6.00 Build 0)  -->
<svg version="1.1" id="Layer_1" xmlns="http://www.w3.org/2000/svg" xmlns:xlink="http://www.w3.org/1999/xlink" x="0px" y="0px"
	 viewBox="0 0 100 100" style="enable-background:new 0 0 100 100;" xml:space="preserve">
<style type="text/css">
	.st0{fill:#25747F;}
	.st1{fill:#00B3CC;}
	.st2{fill:#9BEBF9;}
	.st3{fill:none;stroke:#9BEBF9;stroke-miterlimit:10;}
</style>
<polyline class="st0" points="91.9,54.5 77.8,29.5 56.6,29.5 61.4,34.3 58.2,37.5 53.9,33.1 53.9,54.5 "/>
<path class="st1" d="M34.2,7.1L32,4.9c-0.6-0.6-1.5-0.6-2.1,0l-2.1,2.1L0.6,34.3l3.2,3.2L31,10.3l27.2,27.2l3.2-3.2L34.2,7.1z"/>
<rect x="0" y="54.5" class="st1" width="100" height="4.5"/>
<path class="st2" d="M31,10.3L8.1,33.1v21.4h45.8V33.1L31,10.3z M37.5,47.5H24.9V31.4h12.6V47.5z"/>
<path class="st2" d="M8.1,59v36.5h57.6V68.9h15.8v26.6h10.4V59H8.1z M24.9,90.2h-8.6V68.9h8.6V90.2z M39.6,90.2H31V68.9h8.6V90.2z
	 M54.3,90.2h-8.6V68.9h8.6V90.2z"/>
<rect x="16.3" y="68.9" class="st0" width="8.6" height="10.7"/>
<rect x="31" y="68.9" class="st0" width="8.6" height="10.7"/>
<rect x="45.7" y="68.9" class="st0" width="8.6" height="10.7"/>
<rect x="24.9" y="31.4" class="st0" width="12.6" height="16.1"/>
<rect x="65.7" y="68.9" class="st0" width="15.8" height="26.6"/>
</svg>
