<?xml version="1.0" encoding="utf-8"?>
<!-- Generator: Adobe Illustrator 20.0.0, SVG Export Plug-In . SVG Version: 6.00 Build 0)  -->
<svg version="1.1" id="Layer_1" xmlns="http://www.w3.org/2000/svg" xmlns:xlink="http://www.w3.org/1999/xlink" x="0px" y="0px"
	 viewBox="0 0 100 100" style="enable-background:new 0 0 100 100;" xml:space="preserve">
<style type="text/css">
	.st0{fill:#25747F;}
	.st1{fill:#00B3CC;}
	.st2{fill:#9BEBF9;}
	.st3{fill:none;stroke:#9BEBF9;stroke-miterlimit:10;}
</style>
<g>
	<path class="st1" d="M86.5,23.6L70.3,50.9c1.5,0.3,2.8,1.1,3.8,2.3l16.1-27.3C88.8,25.6,87.5,24.8,86.5,23.6z"/>
	<path class="st1" d="M38.5,46.7L25,69.7c1.5,0.3,2.8,1.1,3.8,2.2l13.5-23C40.8,48.6,39.5,47.8,38.5,46.7z"/>
	<path class="st1" d="M47.7,47.5l14.9,8.7c0.3-1.5,1.1-2.8,2.2-3.8L50,43.7C49.7,45.2,48.9,46.5,47.7,47.5z"/>
</g>
<polygon class="st2" points="4.7,95.3 4.7,2.5 0.3,2.5 0.3,99.7 99.5,99.7 99.5,95.3 "/>
<g>
	<ellipse transform="matrix(0.9681 -0.2505 0.2505 0.9681 -1.9403 23.5497)" class="st0" cx="91.5" cy="19.4" rx="6.6" ry="6.6"/>
	<ellipse transform="matrix(0.9681 -0.2505 0.2505 0.9681 -12.1741 19.1401)" class="st0" cx="69.1" cy="57.4" rx="6.6" ry="6.6"/>
	<ellipse transform="matrix(0.9681 -0.2505 0.2505 0.9681 -9.2484 12.2581)" class="st0" cx="43.5" cy="42.5" rx="6.6" ry="6.6"/>
	<ellipse transform="matrix(0.9681 -0.2505 0.2505 0.9681 -18.315 8.3957)" class="st0" cx="23.8" cy="76.1" rx="6.6" ry="6.6"/>
</g>
</svg>
