<?xml version="1.0" encoding="utf-8"?>
<!-- Generator: Adobe Illustrator 20.0.0, SVG Export Plug-In . SVG Version: 6.00 Build 0)  -->
<svg version="1.1" id="Layer_1" xmlns="http://www.w3.org/2000/svg" xmlns:xlink="http://www.w3.org/1999/xlink" x="0px" y="0px"
	 viewBox="0 0 100 100" style="enable-background:new 0 0 100 100;" xml:space="preserve">
<style type="text/css">
	.st0{fill:#25747F;}
	.st1{fill:#00B3CC;}
	.st2{fill:#9BEBF9;}
	.st3{fill:none;stroke:#9BEBF9;stroke-miterlimit:10;}
</style>
<g>
	<path class="st0" d="M32.2,33.4c-6.9,0-12.8,4.2-15.3,10.2c3.5,4.7,9,7.7,15.3,7.7c6.3,0,11.9-3.1,15.3-7.7
		C45.1,37.6,39.1,33.4,32.2,33.4z"/>
	<circle class="st0" cx="32.2" cy="22.6" r="5.7"/>
</g>
<path class="st1" d="M98.4,86.6L70.7,58.9L59.6,70l27.7,27.7c2.2,2.2,6.5,1.5,9.6-1.5l0,0C99.9,93.1,100.6,88.8,98.4,86.6z"/>
<path class="st2" d="M68.4,61.2l-10-10c8.7-12.4,7.5-29.7-3.6-40.8C42.3-2.1,22.1-2.1,9.7,10.3S-2.8,43,9.7,55.5
	c11.6,11.6,29.9,12.4,42.4,2.4l9.8,9.8L68.4,61.2z M49.6,50.2c-9.6,9.6-25.1,9.6-34.6,0c-9.6-9.6-9.6-25.1,0-34.6
	C24.5,6,40,6,49.6,15.6S59.1,40.7,49.6,50.2z"/>
</svg>
