<?xml version="1.0" encoding="utf-8"?>
<!-- Generator: Adobe Illustrator 20.0.0, SVG Export Plug-In . SVG Version: 6.00 Build 0)  -->
<svg version="1.1" id="Layer_1" xmlns="http://www.w3.org/2000/svg" xmlns:xlink="http://www.w3.org/1999/xlink" x="0px" y="0px"
	 viewBox="0 0 100 100" style="enable-background:new 0 0 100 100;" xml:space="preserve">
<style type="text/css">
	.st0{fill:#25747F;}
	.st1{fill:#00B3CC;}
	.st2{fill:#9BEBF9;}
	.st3{fill:none;stroke:#9BEBF9;stroke-miterlimit:10;}
</style>
<path class="st2" d="M73.5,22.5h21.2c0-4.1-6.6-7.5-14.8-7.5c-3.3,0-6.4,0.6-8.9,1.5l15-15c-2.9-2.9-10-0.6-15.8,5.2
	C67.9,9,66.1,11.6,65,14c-1.1-2.4-2.9-4.9-5.2-7.3C54,0.9,47-1.4,44.1,1.5l15,15c-2.5-0.9-5.5-1.5-8.9-1.5c-8.2,0-14.8,3.4-14.8,7.5
	h21.2c-2.4,1.1-4.9,2.9-7.3,5.2c-5.8,5.8-8.1,12.9-5.2,15.8l21-21h0c0,0,0,0,0,0l0,0c0,0,0,0,0,0c0,0,0,0,0,0l0,0l0,0c0,0,0,0,0,0
	c0,0,0,0,0,0l0,0c0,0,0,0,0,0h0l21,21c2.9-2.9,0.6-10-5.2-15.8C78.5,25.3,75.9,23.6,73.5,22.5z"/>
<circle class="st1" cx="17.6" cy="48.9" r="12.3"/>
<path class="st1" d="M6.6,92.5c0-9.7,17.2-17.6,38.4-17.6s38.4,7.9,38.4,17.6S6.6,102.2,6.6,92.5z"/>
<g>
	<polygon class="st0" points="65,22.5 65,22.5 65,22.5 65,22.5 65,22.5 65,22.5 	"/>
	<circle class="st0" cx="65" cy="22.5" r="0"/>
	<path class="st0" d="M69,26.4L65,22.5l-3.7,3.7c0.5,5.7,0.7,13.8-1.1,21.5c-2.4,10.6-13,23.2-16.5,27.1c0.4,0,0.9,0,1.3,0
		c2.8,0,5.6,0.1,8.3,0.4c5-6.3,12.2-16.5,14.3-25.8C69.5,41.1,69.5,32.6,69,26.4z"/>
</g>
</svg>
