<?xml version="1.0" encoding="UTF-8"?>
<svg width="60px" height="60px" viewBox="0 0 60 60" version="1.1" xmlns="http://www.w3.org/2000/svg" xmlns:xlink="http://www.w3.org/1999/xlink">
    <!-- Generator: Sketch 46.2 (44496) - http://www.bohemiancoding.com/sketch -->
    <title>Vendor Services</title>
    <desc>Created with Sketch.</desc>
    <defs>
        <linearGradient x1="50%" y1="100%" x2="50%" y2="0%" id="linearGradient-1">
            <stop stop-color="#0076CC" offset="0%"></stop>
            <stop stop-color="#178DE3" offset="100%"></stop>
        </linearGradient>
    </defs>
    <g id="Page-1" stroke="none" stroke-width="1" fill="none" fill-rule="evenodd">
        <g id="Icons" transform="translate(-877.000000, -52.000000)" fill-rule="nonzero" fill="url(#linearGradient-1)">
            <g id="Property-Management" transform="translate(24.000000, 22.000000)">
                <g id="Vender-Services" transform="translate(853.000000, 30.000000)">
                    <path d="M10,15.1698113 C5.85786438,15.1698113 2.5,11.8246181 2.5,7.69811321 C2.5,3.57160828 5.85786438,0.226415094 10,0.226415094 C14.1421356,0.226415094 17.5,3.57160828 17.5,7.69811321 C17.5,11.8246181 14.1421356,15.1698113 10,15.1698113 Z M12.5,32.6037736 L12.5,35.0943396 L17.5,35.0943396 L17.5,40.0754717 L8.75,40.0754717 C8.0625,40.0754717 7.5,40.6333585 7.5,41.3207547 C7.5,42.0081509 8.0625,42.5660377 8.75,42.5660377 L11.25,42.5660377 C14.6975,42.5660377 17.5,45.3579623 17.5,48.7924528 C17.5,51.8010566 15.35,54.3165283 12.5,54.8943396 L12.5,57.509434 L7.5,57.509434 L7.5,55.0188679 L2.5,55.0188679 L2.5,50.0377358 L11.25,50.0377358 C11.9375,50.0377358 12.5,49.4798491 12.5,48.7924528 C12.5,48.1050566 11.9375,47.5471698 11.25,47.5471698 L8.75,47.5471698 C5.3025,47.5471698 2.5,44.7527547 2.5,41.3207547 C2.5,38.3146415 4.65,35.7991698 7.5,35.2213585 L7.5,32.6037736 L12.5,32.6037736 Z M47.5,15.1673208 C43.365,15.1673208 40,11.8175094 40,7.69562264 C40,3.57871698 43.365,0.223924528 47.5,0.223924528 C51.635,0.223924528 55,3.57871698 55,7.69562264 C55,11.8150189 51.635,15.1673208 47.5,15.1673208 Z M47.5,17.6578868 C54.3925,17.6578868 60,23.246717 60,30.110717 L60,37.5824151 C60,38.9596981 58.8825,40.0729811 57.5,40.0729811 L55,40.0729811 L55,57.5069434 C55,58.8842264 53.8825,59.9975094 52.5,59.9975094 L42.5,59.9975094 C41.1175,59.9975094 40,58.8842264 40,57.5069434 L40,40.0729811 L37.5,40.0729811 C36.1175,40.0729811 35,38.9596981 35,37.5824151 L35,30.110717 C35,23.2442264 40.6075,17.6578868 47.5,17.6578868 Z M10,17.6578868 C14.6525,17.6578868 18.53,20.8383396 19.645,25.1320755 L27.5,25.1320755 L27.5,59.9975094 L22.5,59.9975094 L22.5,30.110717 L-4.4408921e-16,30.110717 L-4.4408921e-16,27.6201509 C-4.4408921e-16,22.1184906 4.4775,17.6578868 10,17.6578868 Z" id="Vendor-Services"></path>
                </g>
            </g>
        </g>
    </g>
</svg>