<?xml version="1.0" encoding="UTF-8"?>
<svg width="60px" height="60px" viewBox="0 0 60 60" version="1.1" xmlns="http://www.w3.org/2000/svg" xmlns:xlink="http://www.w3.org/1999/xlink">
    <!-- Generator: Sketch 45.1 (43504) - http://www.bohemiancoding.com/sketch -->
    <title>OneSite</title>
    <desc>Created with Sketch.</desc>
    <defs>
        <linearGradient x1="50%" y1="100%" x2="50%" y2="0%" id="linearGradient-1">
            <stop stop-color="#0076CC" offset="0%"></stop>
            <stop stop-color="#178DE3" offset="100%"></stop>
        </linearGradient>
    </defs>
    <g id="Page-1" stroke="none" stroke-width="1" fill="none" fill-rule="evenodd">
        <g id="Icons" transform="translate(-249.000000, -52.000000)" fill-rule="nonzero" fill="url(#linearGradient-1)">
            <g id="Property-Management" transform="translate(24.000000, 22.000000)">
                <g id="OneSite" transform="translate(225.000000, 30.000000)">
                    <path d="M30,25 C23.1075,25 17.5,19.39 17.5,12.5 C17.5,5.61 23.1075,0 30,0 C36.8925,0 42.5,5.61 42.5,12.5 C42.5,19.3925 36.8925,25 30,25 Z M30,5 C25.865,5 22.5,8.3675 22.5,12.5 C22.5,16.635 25.865,20 30,20 C34.135,20 37.5,16.635 37.5,12.5 C37.5,8.3675 34.135,5 30,5 Z M47.5,35 L60,35 L60,60 L47.5,60 L47.5,35 Z M57.5,47.5 L57.5,42.5 L50,42.5 L50,47.5 L57.5,47.5 Z M30,27.5 C37.43,27.5 43.5825,22.09 44.775,15 L45,15 L45,60 L35,60 L35,47.5 L25,47.5 L25,60 L15,60 L15,15 L15.225,15 C16.4175,22.09 22.57,27.5 30,27.5 Z M27.5,42.5 L27.5,37.5 L20,37.5 L20,42.5 L27.5,42.5 Z M27.5,35 L27.5,30 L20,30 L20,35 L27.5,35 Z M40,42.5 L40,37.5 L32.5,37.5 L32.5,42.5 L40,42.5 Z M40,35 L40,30 L32.5,30 L32.5,35 L40,35 Z M0,60 L0,35 L12.5,35 L12.5,60 L0,60 Z M2.5,42.5 L2.5,47.5 L10,47.5 L10,42.5 L2.5,42.5 Z"></path>
                </g>
            </g>
        </g>
    </g>
</svg>