<?xml version="1.0" encoding="utf-8"?>
<!-- Generator: Adobe Illustrator 20.0.0, SVG Export Plug-In . SVG Version: 6.00 Build 0)  -->
<svg version="1.1" id="Layer_1" xmlns="http://www.w3.org/2000/svg" xmlns:xlink="http://www.w3.org/1999/xlink" x="0px" y="0px"
	 viewBox="0 0 100 100" style="enable-background:new 0 0 100 100;" xml:space="preserve">
<style type="text/css">
	.st0{fill:#25747F;}
	.st1{fill:#00B3CC;}
	.st2{fill:#9BEBF9;}
	.st3{fill:none;stroke:#9BEBF9;stroke-miterlimit:10;}
</style>
<path class="st2" d="M16.2,2.6c-3.7,0-6.6,3-6.6,6.6v88.2h70c3.7,0,6.6-3,6.6-6.6V9.2c0-3.7,3-6.6,6.6-6.6H16.2z M68.7,47.4h-4v19.7
	H52.6V54.2h-9.2v12.9H31.4V47.4h-4c-0.5,0-0.8-0.6-0.4-1l18.8-18.6l1.6-1.6c0.4-0.4,1.1-0.4,1.5,0l1.6,1.6l7.6,7.6v-4.6
	c0-0.3,0.3-0.6,0.6-0.6h5.6c0.3,0,0.6,0.3,0.6,0.6v11.3l4.4,4.2C69.5,46.8,69.2,47.4,68.7,47.4z"/>
<path class="st1" d="M99.5,9.2v2.7H86.2V9.2c0-3.7,3-6.6,6.6-6.6C96.5,2.6,99.5,5.5,99.5,9.2z"/>
<path class="st1" d="M79.6,97.4H7.1c-3.7,0-6.6-3-6.6-6.6v-5.9H73v5.9C73,94.5,76,97.4,79.6,97.4z"/>
<path class="st0" d="M69.1,46.4l-4.4-4.2V30.9c0-0.3-0.3-0.6-0.6-0.6h-5.6c-0.3,0-0.6,0.3-0.6,0.6v4.6l-7.6-7.6l-1.6-1.6
	c-0.4-0.4-1.1-0.4-1.5,0l-1.6,1.6L27,46.4c-0.4,0.4-0.1,1,0.4,1h4v19.7h12.1V54.2h9.2v12.9h12.1V47.4h4
	C69.2,47.4,69.5,46.8,69.1,46.4z"/>
</svg>
