<?xml version="1.0" encoding="utf-8"?>
<!-- Generator: Adobe Illustrator 20.0.0, SVG Export Plug-In . SVG Version: 6.00 Build 0)  -->
<svg version="1.1" id="Layer_1" xmlns="http://www.w3.org/2000/svg" xmlns:xlink="http://www.w3.org/1999/xlink" x="0px" y="0px"
	 viewBox="0 0 100 100" style="enable-background:new 0 0 100 100;" xml:space="preserve">
<style type="text/css">
	.st0{fill:#25747F;}
	.st1{fill:#00B3CC;}
	.st2{fill:#9BEBF9;}
	.st3{fill:none;stroke:#9BEBF9;stroke-miterlimit:10;}
</style>
<path class="st0" d="M61.5,85.8L50.6,74.9c-0.8-0.8-2.2-0.8-3,0L41,81.4c-0.7,0.7-7.3-3.3-14.2-10.2S16,57.7,16.7,57.1l6.6-6.6
	c0.8-0.8,0.8-2.2,0-3L12.3,36.6c-0.8-0.8-2.2-0.8-3,0l-6.5,6.5c-4.9,4.9-2.9,20,14.6,37.5S50,100.2,55,95.3l6.5-6.5
	C62.3,87.9,62.3,86.6,61.5,85.8z"/>
<path class="st1" d="M69.5,2.4c-16.6,0-30,13.4-30,30c0,8.1,3.2,15.4,8.4,20.8c-1.8,3.1-4.6,5.5-7.9,6.7c1.6,0.6,3.3,0.9,5.1,0.9
	c3.3,0,6.3-1.1,8.8-2.8c4.6,2.8,9.9,4.4,15.7,4.4c16.6,0,30-13.4,30-30S86.1,2.4,69.5,2.4z M79.6,20c1.8,0,3.2,1.4,3.2,3.2
	s-1.4,3.2-3.2,3.2s-3.2-1.4-3.2-3.2S77.9,20,79.6,20z M60.4,20c1.8,0,3.2,1.4,3.2,3.2s-1.4,3.2-3.2,3.2s-3.2-1.4-3.2-3.2
	S58.7,20,60.4,20z M70,52.6c-10.6,0-19.1-8.6-19.1-19.1H52c2.6,7.5,9.7,12.8,18,12.8c8.3,0,15.4-5.4,18-12.8h1.1
	C89.2,44,80.6,52.6,70,52.6z"/>
</svg>
