<?xml version="1.0" encoding="utf-8"?>
<!-- Generator: Adobe Illustrator 20.0.0, SVG Export Plug-In . SVG Version: 6.00 Build 0)  -->
<svg version="1.1" id="Layer_1" xmlns="http://www.w3.org/2000/svg" xmlns:xlink="http://www.w3.org/1999/xlink" x="0px" y="0px"
	 viewBox="0 0 100 100" style="enable-background:new 0 0 100 100;" xml:space="preserve">
<style type="text/css">
	.st0{fill:#25747F;}
	.st1{fill:#00B3CC;}
	.st2{fill:#9BEBF9;}
	.st3{fill:none;stroke:#9BEBF9;stroke-miterlimit:10;}
</style>
<g>
	<path class="st1" d="M91.1,24.2L80.3,34.9l-9.1-2.8l-2.8-9.1l10.7-10.7c0.6-0.6,0.3-1.5-0.5-1.7c-5.9-1.3-12.4,0.3-17,5
		c-5.4,5.4-6.8,13.3-4,20L14.4,78.9c-3.9,3.9-2.4,7,0.4,9.8c2.8,2.8,5.8,4.3,9.8,0.4l43.3-43.3c6.7,2.7,14.6,1.4,20-4
		c4.6-4.6,6.3-11.1,5-17C92.6,23.9,91.6,23.6,91.1,24.2z"/>
</g>
<path class="st0" d="M16.6,31.6l-8.6,5v10l8.6,5l8.6-5v-10L16.6,31.6z M16.6,46.2c-2.6,0-4.6-2.1-4.6-4.6c0-2.6,2.1-4.6,4.6-4.6
	c2.6,0,4.6,2.1,4.6,4.6C21.2,44.1,19.2,46.2,16.6,46.2z"/>
<path class="st0" d="M36.1,0.2l-8.6,5v10l8.6,5l8.6-5v-10L36.1,0.2z M36.1,14.8c-2.6,0-4.6-2.1-4.6-4.6s2.1-4.6,4.6-4.6
	c2.6,0,4.6,2.1,4.6,4.6S38.7,14.8,36.1,14.8z"/>
<g>
	<path class="st1" d="M91.1,24.2L80.3,34.9l-9.1-2.8l-2.8-9.1l10.7-10.7c0.6-0.6,0.3-1.5-0.5-1.7c-5.9-1.3-12.4,0.3-17,5
		c-5.4,5.4-6.8,13.3-4,20L14.4,78.9c-3.9,3.9-2.4,7,0.4,9.8c2.8,2.8,5.8,4.3,9.8,0.4l43.3-43.3c6.7,2.7,14.6,1.4,20-4
		c4.6-4.6,6.3-11.1,5-17C92.6,23.9,91.6,23.6,91.1,24.2z"/>
</g>
<path class="st0" d="M93.3,79.7h-2.6c-0.4-2.1-1.2-4-2.3-5.7l1.9-1.9c0.3-0.3,0.3-0.7,0-1l-2.7-2.7c-0.3-0.3-0.7-0.3-1,0l-1.9,1.9
	c-1.7-1.2-3.7-2-5.8-2.4v-3c0-0.4-0.3-0.7-0.7-0.7h-3.8c-0.4,0-0.7,0.3-0.7,0.7v3c-2,0.4-3.9,1.1-5.6,2.3l-2.1-2.1
	c-0.3-0.3-0.7-0.3-1,0l-2.7,2.7c-0.3,0.3-0.3,0.7,0,1l2.1,2.1c-1.2,1.7-2.1,3.7-2.5,5.8h-2.6c-0.4,0-0.7,0.3-0.7,0.7v3.8
	c0,0.4,0.3,0.7,0.7,0.7h2.6c0.4,2.1,1.2,4.1,2.4,5.8l-1.7,1.7c-0.3,0.3-0.3,0.7,0,1l2.7,2.7c0.3,0.3,0.7,0.3,1,0l1.7-1.7
	c1.7,1.2,3.6,2,5.7,2.3v2.6c0,0.4,0.3,0.7,0.7,0.7h3.8c0.4,0,0.7-0.3,0.7-0.7v-2.6c2.2-0.4,4.1-1.2,5.8-2.5l1.8,1.8
	c0.3,0.3,0.7,0.3,1,0l2.7-2.7c0.3-0.3,0.3-0.7,0-1l-1.9-1.9c1.1-1.7,1.9-3.6,2.3-5.6h2.6c0.4,0,0.7-0.3,0.7-0.7v-3.8
	C94,80,93.7,79.7,93.3,79.7z M76.5,91.9c-5.3,0-9.6-4.3-9.6-9.6s4.3-9.6,9.6-9.6s9.6,4.3,9.6,9.6S81.8,91.9,76.5,91.9z"/>
</svg>
